<?xml version="1.0" standalone="no"?>
<!DOCTYPE svg PUBLIC "-//W3C//DTD SVG 20010904//EN"
 "http://www.w3.org/TR/2001/REC-SVG-20010904/DTD/svg10.dtd">
<svg version="1.0" xmlns="http://www.w3.org/2000/svg"
 width="1040.000000pt" height="1040.000000pt" viewBox="0 0 1040.000000 1040.000000"
 preserveAspectRatio="xMidYMid meet">

<g transform="translate(0.000000,1040.000000) scale(0.100000,-0.100000)"
fill="#000000" stroke="none">
<path d="M8335 9836 c-28 -8 -50 -25 -75 -58 -19 -26 -51 -57 -70 -70 -45 -31
-60 -63 -71 -157 -10 -80 -11 -82 -87 -141 -40 -30 -61 -86 -62 -160 -1 -61
-7 -72 -64 -115 -50 -38 -75 -94 -76 -167 0 -57 0 -57 -60 -109 -68 -61 -90
-105 -90 -184 l0 -54 -105 -103 c-58 -57 -122 -119 -143 -139 -20 -20 -46 -49
-57 -63 -12 -17 -35 -31 -60 -36 -22 -5 -321 -10 -666 -10 l-626 0 -42 -45
c-22 -24 -41 -48 -41 -53 0 -5 -17 -17 -37 -28 -36 -18 -70 -19 -678 -24 -685
-5 -667 -4 -702 -57 -10 -14 -35 -39 -57 -54 l-39 -29 -261 0 c-147 0 -277 -5
-298 -10 -26 -8 -46 -24 -72 -60 -51 -71 -88 -80 -332 -80 l-192 0 -36 -42
c-20 -23 -36 -45 -36 -49 0 -16 -102 -49 -152 -49 -51 0 -54 -1 -108 -59 -30
-33 -68 -65 -83 -70 -16 -6 -72 -11 -125 -11 -110 0 -202 -20 -217 -46 -15
-27 -207 -219 -232 -232 -12 -7 -66 -12 -125 -12 -154 -1 -186 -10 -228 -62
-19 -23 -50 -56 -69 -73 -19 -16 -55 -52 -80 -79 -67 -70 -82 -76 -218 -77
-161 -2 -169 -4 -217 -66 -23 -29 -60 -67 -83 -85 -23 -18 -56 -52 -74 -76
-17 -23 -44 -49 -60 -57 -16 -9 -47 -40 -70 -70 -45 -59 -63 -68 -174 -81 -67
-7 -77 -13 -115 -66 -15 -21 -50 -55 -78 -77 -27 -22 -63 -58 -78 -80 -16 -21
-46 -50 -67 -63 -21 -13 -50 -42 -65 -65 -15 -23 -48 -57 -74 -77 -34 -26 -50
-48 -62 -82 -20 -60 -20 -118 0 -149 30 -46 77 -55 294 -55 l200 0 52 -56 c87
-92 95 -94 324 -94 196 0 197 0 231 -26 18 -14 33 -30 33 -35 0 -6 -28 -39
-63 -74 -34 -35 -80 -83 -102 -107 -22 -23 -56 -57 -75 -74 -19 -16 -49 -46
-66 -65 -17 -19 -48 -50 -70 -70 -21 -21 -57 -57 -79 -81 -22 -24 -56 -55 -75
-70 l-35 -26 -3 -267 c-2 -147 -1 -283 3 -302 4 -24 18 -42 47 -63 l41 -30
717 0 716 0 26 28 c13 15 34 41 46 58 38 56 186 75 237 31 24 -20 27 -31 32
-108 6 -100 0 -116 -59 -154 -24 -15 -60 -50 -81 -77 -21 -27 -55 -61 -76 -76
-22 -15 -50 -44 -62 -65 -13 -21 -45 -54 -71 -72 -38 -28 -50 -44 -63 -86 -8
-29 -15 -74 -15 -100 0 -47 -2 -50 -55 -90 -30 -23 -71 -63 -91 -90 -19 -26
-50 -57 -69 -69 -54 -33 -75 -70 -75 -129 0 -65 -29 -125 -72 -147 -27 -14
-53 -16 -158 -11 -69 3 -133 8 -142 12 -10 4 -34 29 -54 56 -20 27 -46 54 -57
61 -12 6 -78 13 -147 15 -69 2 -136 6 -149 9 -14 3 -53 34 -88 70 l-63 64 -60
0 c-60 0 -105 -15 -142 -48 -16 -13 -18 -37 -18 -216 0 -230 8 -261 76 -312
58 -43 63 -53 64 -125 0 -92 -13 -121 -74 -168 -39 -29 -55 -48 -60 -72 -3
-17 -6 -150 -6 -295 l0 -263 29 -33 c95 -107 125 -139 286 -297 66 -66 132
-133 146 -150 20 -23 35 -31 60 -31 18 0 61 -5 96 -11 56 -10 67 -16 91 -48
30 -41 174 -185 212 -213 21 -15 46 -18 163 -18 157 0 179 7 216 67 13 22 38
50 57 62 18 13 54 45 79 72 25 27 56 56 69 64 22 15 25 14 47 -12 13 -15 63
-66 112 -114 48 -48 87 -92 87 -97 0 -5 21 -24 48 -42 26 -17 59 -49 74 -71
36 -51 76 -69 166 -78 71 -7 77 -9 101 -42 15 -18 46 -52 70 -74 24 -22 58
-56 75 -75 17 -19 49 -51 71 -71 41 -39 60 -57 124 -125 20 -22 50 -50 66 -65
17 -14 47 -46 68 -72 l38 -47 207 0 c114 0 223 5 243 10 25 7 45 24 69 56 18
25 50 58 72 74 22 16 52 47 69 69 16 23 47 54 70 70 22 16 57 51 77 78 19 26
43 52 51 57 9 5 48 41 87 80 39 39 87 87 108 106 20 18 44 46 53 61 9 14 27
33 42 42 59 35 82 71 91 144 16 126 39 153 128 153 71 0 102 18 198 114 96 97
104 110 104 176 0 67 17 97 88 159 32 28 65 62 72 76 7 14 35 39 62 56 26 17
48 36 48 41 0 6 39 50 88 100 114 117 119 121 247 246 61 59 120 121 133 139
12 18 40 42 61 54 21 11 45 34 55 49 9 16 48 57 86 91 38 34 72 70 75 80 4 11
31 37 60 59 46 34 57 48 70 92 8 28 15 73 15 100 0 46 2 49 54 90 30 24 70 64
90 89 19 26 51 57 71 69 19 12 49 41 65 65 17 24 50 58 75 76 24 17 57 50 72
72 15 22 51 57 80 79 55 40 59 48 67 141 6 69 29 113 79 147 20 14 49 43 64
65 15 22 36 46 47 54 12 8 58 51 103 95 45 45 92 90 103 101 11 11 77 76 145
145 69 69 135 135 147 147 113 112 494 494 572 572 114 115 206 213 206 219 0
4 20 21 44 36 53 33 65 61 73 165 l6 73 57 45 c31 24 72 64 91 89 18 25 48 54
66 65 53 33 73 69 73 133 0 78 19 116 79 160 54 40 57 47 64 142 6 76 21 104
74 143 24 17 53 47 65 66 29 44 99 75 169 75 53 0 54 0 131 78 42 42 86 86 98
97 11 11 77 76 145 145 69 69 135 135 147 146 358 356 432 434 453 474 15 29
17 64 13 299 -2 188 -7 273 -16 288 -29 53 -34 53 -547 53 -459 0 -478 1 -524
21 -47 20 -49 22 -60 76 -6 31 -11 74 -11 95 0 41 -15 61 -89 116 -18 13 -35
38 -41 60 -5 20 -10 124 -10 230 0 107 -4 201 -10 212 -5 10 -32 34 -59 54
-62 45 -71 72 -71 201 0 136 -18 197 -68 229 -75 48 -76 52 -82 220 -3 83 -9
157 -14 165 -5 7 -27 22 -50 32 -49 22 -225 25 -291 5z m186 -597 l29 -31 1
-207 c0 -131 5 -217 12 -237 7 -18 34 -48 62 -69 28 -21 53 -43 57 -49 4 -6 8
-96 9 -201 1 -231 10 -280 59 -312 70 -46 75 -55 87 -153 7 -50 17 -98 24
-106 6 -8 34 -21 62 -29 42 -12 132 -15 523 -15 l473 0 27 -23 c26 -23 26 -23
9 -56 -9 -18 -34 -52 -54 -75 -52 -56 -61 -76 -61 -136 0 -66 -9 -82 -85 -155
-34 -33 -68 -69 -76 -81 -8 -11 -30 -31 -50 -45 -20 -13 -52 -44 -71 -69 -40
-53 -97 -79 -177 -79 -49 -1 -57 -4 -85 -37 -40 -46 -83 -91 -127 -130 -19
-17 -52 -52 -75 -77 -40 -46 -41 -47 -101 -47 -80 0 -127 -21 -157 -69 -14
-21 -44 -52 -68 -68 -60 -40 -77 -89 -77 -226 -1 -130 -14 -165 -80 -213 -25
-18 -55 -49 -65 -69 -11 -20 -38 -48 -60 -63 -52 -34 -79 -90 -84 -170 -4 -63
-5 -63 -64 -115 -32 -29 -70 -69 -83 -89 -14 -21 -43 -49 -65 -63 -21 -13 -49
-40 -62 -59 -13 -18 -43 -50 -68 -70 -63 -52 -90 -105 -90 -177 l0 -58 -87
-88 c-114 -115 -126 -123 -192 -123 -39 0 -66 -7 -96 -25 l-42 -24 -13 -93
c-12 -87 -15 -94 -49 -125 -73 -67 -87 -80 -113 -115 -28 -37 -31 -38 -191
-63 -30 -5 -44 -16 -76 -59 -21 -29 -52 -61 -67 -71 -32 -20 -177 -165 -206
-205 -12 -17 -18 -43 -18 -78 0 -68 -19 -104 -91 -172 -59 -55 -59 -56 -59
-114 0 -64 -21 -118 -54 -141 -11 -8 -43 -15 -71 -15 -51 0 -121 -26 -141 -51
-6 -8 -14 -43 -16 -79 -7 -80 -32 -134 -75 -160 -18 -10 -48 -40 -67 -67 -19
-26 -52 -59 -72 -73 -48 -32 -73 -89 -74 -164 0 -57 -2 -61 -42 -97 -24 -21
-51 -46 -61 -56 -24 -24 -120 -121 -155 -156 -25 -26 -100 -100 -130 -129 -13
-14 -113 -113 -160 -160 -15 -15 -79 -79 -142 -142 -63 -63 -128 -128 -145
-145 -16 -16 -78 -79 -136 -138 -59 -59 -121 -119 -138 -133 -30 -23 -33 -32
-46 -125 -10 -76 -18 -104 -33 -116 -12 -9 -58 -20 -113 -27 -88 -10 -96 -13
-119 -43 -39 -49 -221 -232 -256 -257 -34 -23 -47 -61 -59 -173 -4 -35 -13
-63 -23 -72 -17 -15 -124 -37 -179 -37 -25 0 -38 -9 -64 -42 -18 -24 -61 -70
-96 -103 l-64 -60 -6 -68 c-5 -53 -12 -77 -35 -108 -15 -21 -35 -39 -43 -39
-8 0 -31 25 -52 55 -32 46 -46 57 -87 70 -27 8 -73 15 -102 15 -50 0 -55 2
-86 42 -18 23 -49 55 -68 72 -19 17 -50 48 -70 69 -19 21 -48 52 -65 68 -16
16 -50 48 -73 72 -98 95 -125 127 -143 167 -10 23 -19 43 -19 44 0 2 25 20 55
42 31 22 58 50 63 64 9 32 9 407 0 441 -5 15 -31 44 -63 68 -30 23 -55 47 -55
54 0 7 18 30 40 52 35 34 46 39 97 43 63 4 80 -6 138 -82 33 -43 89 -66 162
-66 56 0 58 -1 107 -54 74 -79 94 -86 228 -85 138 1 172 12 217 70 18 24 44
51 56 59 12 8 74 69 138 135 64 66 124 127 133 135 8 8 52 51 97 96 45 44 91
87 103 95 11 7 35 33 52 57 17 24 48 56 69 71 21 15 58 51 81 79 24 28 58 60
77 72 18 11 48 43 65 70 18 28 37 50 43 50 6 0 48 37 93 83 45 45 96 95 113
110 28 25 31 34 32 85 0 31 8 77 17 102 16 40 22 46 62 57 25 6 69 12 98 12
45 1 58 6 83 30 25 25 29 37 29 83 0 80 25 143 66 169 19 11 51 42 71 67 59
73 72 81 131 82 111 0 153 38 161 145 l7 75 77 74 c42 40 77 78 77 83 0 6 25
29 55 52 30 23 67 60 81 81 15 22 42 49 60 61 18 11 43 36 54 55 20 32 22 45
18 185 l-3 151 -30 24 c-23 18 -42 24 -83 24 -74 0 -117 -21 -181 -90 l-56
-60 -574 0 -573 0 -39 -39 c-37 -36 -39 -42 -39 -99 0 -57 -3 -64 -38 -102
-36 -37 -43 -40 -93 -40 -65 0 -101 -20 -181 -99 -31 -31 -67 -66 -80 -78 -20
-19 -232 -231 -293 -293 -11 -11 -76 -76 -145 -145 -69 -69 -132 -132 -140
-140 -8 -9 -46 -47 -85 -85 -38 -39 -74 -75 -78 -80 -8 -8 -67 -66 -119 -117
-30 -29 -132 -131 -161 -161 -38 -39 -111 -113 -125 -125 -7 -7 -42 -41 -77
-77 -36 -36 -72 -72 -80 -80 -8 -8 -61 -62 -118 -120 -56 -58 -115 -111 -130
-118 -15 -6 -52 -12 -81 -12 -39 0 -62 -6 -87 -23 -41 -28 -48 -56 -48 -220
l-1 -118 -79 -82 c-44 -45 -91 -93 -105 -107 -14 -14 -77 -77 -140 -140 -63
-63 -129 -128 -146 -145 -17 -16 -52 -51 -79 -78 -83 -83 -108 -97 -170 -97
-75 0 -87 9 -259 182 -55 56 -237 238 -280 280 -62 62 -116 121 -146 161 -22
29 -26 40 -17 51 22 26 79 46 131 46 66 0 107 23 121 70 6 19 14 83 16 141 6
125 -6 157 -87 237 -27 27 -50 54 -50 60 0 5 8 20 18 32 22 27 83 38 215 39
105 1 143 -13 187 -70 44 -55 88 -79 146 -79 60 0 105 26 168 97 26 29 55 54
65 58 10 3 35 29 56 58 21 28 61 70 89 93 51 40 51 40 57 110 6 82 31 134 79
166 19 13 47 42 63 65 15 24 47 56 71 73 23 17 60 53 81 81 21 27 50 56 64 64
52 26 68 55 74 130 8 99 20 124 82 169 30 21 57 47 60 57 3 9 35 43 70 74 36
31 72 68 81 83 8 15 38 43 65 62 27 19 59 49 70 67 11 18 42 50 68 72 59 49
81 93 81 158 0 59 22 97 85 149 25 22 54 53 65 71 10 18 37 43 59 57 61 39 74
66 74 150 -1 137 -18 146 -261 146 -220 0 -270 -11 -306 -69 -39 -62 -71 -81
-132 -81 -77 0 -129 -24 -165 -76 -16 -24 -38 -48 -49 -54 -10 -5 -81 -10
-157 -10 -151 0 -168 -5 -214 -64 -12 -16 -43 -42 -68 -57 l-45 -29 -475 0
-474 0 -39 40 c-21 23 -38 47 -38 55 0 8 16 27 36 42 20 15 44 35 55 43 14 11
21 39 30 110 13 103 32 140 75 140 13 0 57 5 99 11 94 14 100 22 116 147 11
90 13 94 48 120 20 15 82 74 138 131 l103 104 0 144 c0 164 -7 186 -69 203
-20 5 -152 10 -297 10 -298 0 -278 -5 -381 98 -51 51 -53 52 -113 52 -64 0
-102 14 -134 49 -16 17 -17 23 -6 37 25 29 88 54 139 54 64 0 87 12 136 69 22
26 59 62 83 79 23 18 54 51 68 73 14 22 39 49 57 59 18 11 49 40 71 65 62 75
85 85 201 86 151 1 195 10 225 49 44 58 224 230 245 235 11 2 82 6 159 7 l138
4 27 32 c14 18 74 81 134 142 l107 110 146 0 c82 0 154 5 165 10 11 6 31 29
45 51 31 50 89 78 162 79 62 0 87 14 130 74 49 67 85 76 321 76 l195 0 50 54
c81 86 80 86 349 86 273 0 333 8 362 47 11 14 32 40 47 57 l26 31 659 5 c497
4 663 8 680 17 11 7 31 29 43 48 12 20 41 46 64 58 41 22 41 22 754 27 l714 5
31 36 c66 75 75 85 114 115 31 25 42 42 51 84 7 28 12 66 12 83 1 44 17 70 72
111 51 39 68 77 68 153 0 61 14 88 64 125 53 39 86 110 86 187 0 44 4 52 39
84 21 19 45 38 52 43 8 5 30 29 49 54 19 25 41 49 50 54 8 5 48 42 87 82 40
41 78 74 84 74 6 0 24 -14 40 -31z m-2826 -4868 c53 -5 62 -9 82 -40 13 -19
22 -39 20 -45 -2 -6 -27 -29 -55 -51 -29 -22 -62 -53 -74 -70 -11 -16 -43 -48
-70 -70 -27 -22 -61 -57 -74 -78 -13 -20 -46 -53 -72 -73 -26 -19 -65 -56 -87
-83 -22 -26 -55 -59 -74 -72 -18 -13 -44 -40 -57 -61 -14 -21 -42 -51 -63 -66
-21 -16 -58 -50 -81 -78 -23 -27 -63 -65 -89 -84 -45 -35 -46 -37 -52 -105 -7
-87 -34 -154 -63 -160 -11 -2 -57 -9 -101 -15 -103 -14 -125 -32 -125 -105 0
-72 -25 -152 -53 -166 -12 -7 -75 -66 -139 -133 -64 -67 -127 -130 -138 -141
-12 -11 -49 -47 -82 -80 -86 -85 -104 -95 -168 -95 -64 0 -90 -14 -161 -89
-48 -50 -49 -51 -109 -51 -81 0 -116 17 -172 82 l-47 55 -153 6 -153 7 -33 35
c-40 43 -34 62 33 100 24 15 54 42 65 61 12 19 48 57 81 86 33 28 69 66 80 84
11 18 39 45 62 59 23 15 55 45 71 67 15 21 51 57 79 79 27 22 62 59 77 83 30
47 45 56 94 56 18 0 59 5 91 12 54 10 59 14 76 52 11 25 19 65 19 101 1 85 37
125 114 125 19 0 58 5 86 11 48 10 53 14 71 56 11 25 19 68 19 98 0 42 5 60
24 82 21 24 37 30 122 43 l97 15 23 45 c16 31 24 63 24 101 0 95 24 112 193
134 43 6 51 11 86 58 21 29 56 65 78 80 22 15 55 46 73 68 62 78 66 79 320 78
124 -1 252 -4 285 -8z m-2824 -2513 c53 -15 49 -34 -8 -41 -54 -6 -68 2 -58
32 7 24 14 25 66 9z"/>
<path d="M3553 7245 c-12 -8 -31 -31 -44 -51 -29 -47 -105 -84 -175 -84 -58 0
-94 -22 -120 -72 -21 -41 -84 -68 -161 -68 -57 0 -64 -3 -90 -32 -15 -17 -63
-66 -107 -109 l-78 -78 4 -143 c2 -79 8 -151 13 -160 6 -9 29 -30 52 -47 24
-17 60 -53 80 -80 21 -27 55 -59 76 -71 22 -12 51 -42 65 -66 32 -52 78 -74
158 -74 69 0 83 -8 128 -69 62 -84 37 -81 738 -81 505 0 614 2 636 14 15 8 48
36 73 63 25 26 62 61 83 76 20 16 48 46 61 68 14 21 41 49 61 61 20 13 46 43
60 70 23 45 24 55 24 245 l0 198 -68 65 c-38 36 -80 81 -95 101 -26 36 -28 37
-127 49 -89 11 -103 15 -118 37 -9 14 -31 41 -48 61 l-31 36 -145 5 c-139 6
-147 7 -186 35 -23 15 -48 39 -57 53 -9 13 -30 33 -48 43 -30 19 -52 20 -312
20 -233 0 -284 -3 -302 -15z m453 -286 c26 -7 49 -20 55 -31 6 -11 27 -37 46
-59 l35 -39 137 0 c158 0 163 -2 257 -98 33 -33 66 -63 74 -68 9 -5 33 -33 54
-61 21 -29 41 -53 46 -53 17 0 89 -82 83 -96 -12 -31 -87 -64 -147 -64 -57 0
-59 -1 -119 -59 -34 -32 -72 -63 -84 -70 -28 -14 -856 -16 -883 -1 -10 5 -35
32 -55 60 -40 55 -74 70 -158 70 -54 0 -99 21 -118 56 -18 35 -7 169 18 202
17 23 29 28 89 33 105 8 139 23 168 72 29 51 52 64 129 71 58 6 137 32 137 46
0 4 19 28 43 54 41 43 46 46 96 46 29 0 72 -5 97 -11z"/>
<path d="M3836 6661 c-27 -29 -45 -90 -46 -148 0 -72 27 -104 100 -113 72 -9
140 5 168 36 27 31 30 107 6 176 -14 42 -19 47 -59 57 -72 18 -149 14 -169 -8z"/>
</g>
</svg>
