<?xml version="1.0" standalone="no"?>
<!DOCTYPE svg PUBLIC "-//W3C//DTD SVG 20010904//EN"
 "http://www.w3.org/TR/2001/REC-SVG-20010904/DTD/svg10.dtd">
<svg version="1.0" xmlns="http://www.w3.org/2000/svg"
 width="1955.000000pt" height="1274.000000pt" viewBox="0 0 1955.000000 1274.000000"
 preserveAspectRatio="xMidYMid meet">

<g transform="translate(0.000000,1274.000000) scale(0.100000,-0.100000)"
fill="#000000" stroke="none">
<path d="M11860 12325 l0 -75 -75 0 -75 0 0 -75 0 -75 -75 0 -75 0 0 -75 0
-75 -230 0 -230 0 0 -230 0 -230 -75 0 -75 0 0 -75 0 -75 -75 0 -75 0 0 -225
0 -225 -150 0 -150 0 0 -225 0 -225 -75 0 -75 0 0 75 0 75 -75 0 -75 0 0 75 0
75 -80 0 -80 0 0 75 0 75 -75 0 -75 0 0 75 0 75 -75 0 -75 0 0 75 0 75 -75 0
-75 0 0 75 0 75 -75 0 -75 0 0 75 0 75 -75 0 -75 0 0 75 0 75 -680 0 -680 0 0
-75 0 -75 -75 0 -75 0 0 -75 0 -75 -75 0 -75 0 0 -75 0 -75 -80 0 -80 0 0 -75
0 -75 -75 0 -75 0 0 -75 0 -75 -75 0 -75 0 0 -380 0 -380 -225 0 -225 0 0 155
0 155 -225 0 -225 0 0 75 0 75 -80 0 -80 0 0 75 0 75 -150 0 -150 0 0 -75 0
-75 -75 0 -75 0 0 -75 0 -75 -225 0 -225 0 0 -230 0 -230 -75 0 -75 0 0 -75 0
-75 -75 0 -75 0 0 -75 0 -75 -80 0 -80 0 0 -75 0 -75 -75 0 -75 0 0 -305 0
-305 -1585 0 -1585 0 0 -75 0 -75 -75 0 -75 0 0 -450 0 -450 150 0 150 0 0
-155 0 -155 150 0 150 0 0 -150 0 -150 75 0 75 0 0 -150 0 -150 80 0 80 0 0
-75 0 -75 75 0 75 0 0 -75 0 -75 75 0 75 0 0 -75 0 -75 75 0 75 0 0 -75 0 -75
-225 0 -225 0 0 -80 0 -80 -80 0 -80 0 0 -75 0 -75 -375 0 -375 0 0 -150 0
-150 -380 0 -380 0 0 -75 0 -75 -75 0 -75 0 0 -75 0 -75 -75 0 -75 0 0 -150 0
-150 75 0 75 0 0 -75 0 -75 75 0 75 0 0 -80 0 -80 985 0 985 0 0 -75 0 -75 75
0 75 0 0 -75 0 -75 75 0 75 0 0 -1360 0 -1360 75 0 75 0 0 -75 0 -75 75 0 75
0 0 -75 0 -75 75 0 75 0 0 -75 0 -75 380 0 380 0 0 75 0 75 75 0 75 0 0 75 0
75 75 0 75 0 0 75 0 75 75 0 75 0 0 75 0 75 230 0 230 0 0 75 0 75 75 0 75 0
0 80 0 80 75 0 75 0 0 75 0 75 225 0 225 0 0 150 0 150 225 0 225 0 0 75 0 75
80 0 80 0 0 75 0 75 75 0 75 0 0 75 0 75 300 0 300 0 0 -755 0 -755 75 0 75 0
0 -300 0 -300 75 0 75 0 0 -80 0 -80 75 0 75 0 0 -75 0 -75 80 0 80 0 0 -75 0
-75 75 0 75 0 0 -75 0 -75 150 0 150 0 0 -75 0 -75 75 0 75 0 0 -75 0 -75 380
0 380 0 0 75 0 75 75 0 75 0 0 75 0 75 225 0 225 0 0 75 0 75 75 0 75 0 0 75
0 75 75 0 75 0 0 75 0 75 75 0 75 0 0 230 0 230 80 0 80 0 0 75 0 75 75 0 75
0 0 225 0 225 75 0 75 0 0 75 0 75 75 0 75 0 0 80 0 80 150 0 150 0 0 -80 0
-80 75 0 75 0 0 -225 0 -225 75 0 75 0 0 -75 0 -75 75 0 75 0 0 -75 0 -75 80
0 80 0 0 -75 0 -75 75 0 75 0 0 -75 0 -75 75 0 75 0 0 -80 0 -80 75 0 75 0 0
-75 0 -75 75 0 75 0 0 -75 0 -75 980 0 980 0 0 150 0 150 155 0 155 0 0 230 0
230 225 0 225 0 0 225 0 225 75 0 75 0 0 75 0 75 75 0 75 0 0 455 0 455 75 0
75 0 0 75 0 75 75 0 75 0 0 225 0 225 230 0 230 0 0 -75 0 -75 75 0 75 0 0
-75 0 -75 300 0 300 0 0 -75 0 -75 380 0 380 0 0 -150 0 -150 905 0 905 0 0
375 0 375 -75 0 -75 0 0 80 0 80 -75 0 -75 0 0 75 0 75 -75 0 -75 0 0 75 0 75
-75 0 -75 0 0 75 0 75 -75 0 -75 0 0 75 0 75 -75 0 -75 0 0 75 0 75 -80 0 -80
0 0 225 0 225 -75 0 -75 0 0 80 0 80 -150 0 -150 0 0 150 0 150 -150 0 -150 0
0 150 0 150 -75 0 -75 0 0 75 0 75 -150 0 -150 0 0 150 0 150 225 0 225 0 0
75 0 75 75 0 75 0 0 80 0 80 75 0 75 0 0 75 0 75 225 0 225 0 0 75 0 75 80 0
80 0 0 75 0 75 75 0 75 0 0 150 0 150 225 0 225 0 0 150 0 150 75 0 75 0 0 75
0 75 75 0 75 0 0 380 0 380 -1210 0 -1210 0 0 75 0 75 -75 0 -75 0 0 455 0
455 155 0 155 0 0 755 0 755 -80 0 -80 0 0 75 0 75 -75 0 -75 0 0 75 0 75
-375 0 -375 0 0 150 0 150 -305 0 -305 0 0 -75 0 -75 -75 0 -75 0 0 -75 0 -75
-225 0 -225 0 0 -225 0 -225 -75 0 -75 0 0 -75 0 -75 -75 0 -75 0 0 -75 0 -75
-155 0 -155 0 0 225 0 225 -75 0 -75 0 0 75 0 75 -75 0 -75 0 0 225 0 225 -75
0 -75 0 0 230 0 230 -150 0 -150 0 0 150 0 150 -225 0 -225 0 0 75 0 75 -530
0 -530 0 0 -75z m750 -450 l0 -75 75 0 75 0 0 -80 0 -80 80 0 80 0 0 -75 0
-75 75 0 75 0 0 -75 0 -75 75 0 75 0 0 -75 0 -75 75 0 75 0 0 -225 0 -225 75
0 75 0 0 -75 0 -75 75 0 75 0 0 -305 0 -305 75 0 75 0 0 -75 0 -75 75 0 75 0
0 -225 0 -225 305 0 305 0 0 75 0 75 75 0 75 0 0 225 0 225 75 0 75 0 0 150 0
150 75 0 75 0 0 80 0 80 75 0 75 0 0 75 0 75 75 0 75 0 0 75 0 75 75 0 75 0 0
75 0 75 80 0 80 0 0 -75 0 -75 225 0 225 0 0 -75 0 -75 75 0 75 0 0 -75 0 -75
75 0 75 0 0 -80 0 -80 75 0 75 0 0 -225 0 -225 -75 0 -75 0 0 -75 0 -75 -75 0
-75 0 0 -905 0 -905 1135 0 1135 0 0 -155 0 -155 -155 0 -155 0 0 -150 0 -150
-225 0 -225 0 0 -75 0 -75 -75 0 -75 0 0 -75 0 -75 -75 0 -75 0 0 -75 0 -75
-225 0 -225 0 0 -75 0 -75 -80 0 -80 0 0 -75 0 -75 -150 0 -150 0 0 -455 0
-455 75 0 75 0 0 -150 0 -150 155 0 155 0 0 -230 0 -230 150 0 150 0 0 -75 0
-75 75 0 75 0 0 -150 0 -150 75 0 75 0 0 -75 0 -75 75 0 75 0 0 -75 0 -75 75
0 75 0 0 -75 0 -75 75 0 75 0 0 -75 0 -75 75 0 75 0 0 -305 0 -305 -150 0
-150 0 0 75 0 75 -75 0 -75 0 0 75 0 75 -375 0 -375 0 0 80 0 80 -80 0 -80 0
0 75 0 75 -150 0 -150 0 0 75 0 75 -375 0 -375 0 0 75 0 75 -75 0 -75 0 0 75
0 75 -230 0 -230 0 0 -75 0 -75 -75 0 -75 0 0 -75 0 -75 -75 0 -75 0 0 -230 0
-230 -75 0 -75 0 0 -600 0 -600 -75 0 -75 0 0 -80 0 -80 -75 0 -75 0 0 -75 0
-75 -75 0 -75 0 0 -75 0 -75 -80 0 -80 0 0 -75 0 -75 -75 0 -75 0 0 -150 0
-150 -75 0 -75 0 0 -75 0 -75 -605 0 -605 0 0 75 0 75 -225 0 -225 0 0 75 0
75 -75 0 -75 0 0 75 0 75 -75 0 -75 0 0 225 0 225 -75 0 -75 0 0 80 0 80 -75
0 -75 0 0 75 0 75 -80 0 -80 0 0 75 0 75 -75 0 -75 0 0 225 0 225 -75 0 -75 0
0 75 0 75 -300 0 -300 0 0 -75 0 -75 -75 0 -75 0 0 -225 0 -225 -75 0 -75 0 0
-75 0 -75 -80 0 -80 0 0 -75 0 -75 -75 0 -75 0 0 -80 0 -80 -75 0 -75 0 0
-225 0 -225 -75 0 -75 0 0 -225 0 -225 -225 0 -225 0 0 -75 0 -75 -75 0 -75 0
0 -80 0 -80 -75 0 -75 0 0 -75 0 -75 -80 0 -80 0 0 -75 0 -75 -75 0 -75 0 0
150 0 150 -225 0 -225 0 0 80 0 80 -75 0 -75 0 0 150 0 150 -75 0 -75 0 0 225
0 225 -75 0 -75 0 0 75 0 75 -80 0 -80 0 0 985 0 985 -525 0 -525 0 0 -75 0
-75 -230 0 -230 0 0 -230 0 -230 -75 0 -75 0 0 -75 0 -75 -225 0 -225 0 0 -75
0 -75 -150 0 -150 0 0 -75 0 -75 -75 0 -75 0 0 -75 0 -75 -80 0 -80 0 0 -75 0
-75 -75 0 -75 0 0 -75 0 -75 -225 0 -225 0 0 -75 0 -75 -75 0 -75 0 0 -80 0
-80 -75 0 -75 0 0 -75 0 -75 -75 0 -75 0 0 75 0 75 -75 0 -75 0 0 80 0 80 -80
0 -80 0 0 830 0 830 80 0 80 0 0 530 0 530 -305 0 -305 0 0 75 0 75 -75 0 -75
0 0 75 0 75 -455 0 -455 0 0 150 0 150 380 0 380 0 0 75 0 75 225 0 225 0 0
530 0 530 -75 0 -75 0 0 75 0 75 -75 0 -75 0 0 225 0 225 -75 0 -75 0 0 75 0
75 -150 0 -150 0 0 155 0 155 -155 0 -155 0 0 225 0 225 1285 0 1285 0 0 -75
0 -75 380 0 380 0 0 225 0 225 -75 0 -75 0 0 380 0 380 75 0 75 0 0 75 0 75
75 0 75 0 0 75 0 75 75 0 75 0 0 75 0 75 75 0 75 0 0 75 0 75 150 0 150 0 0
-75 0 -75 80 0 80 0 0 -75 0 -75 75 0 75 0 0 -225 0 -225 75 0 75 0 0 -75 0
-75 75 0 75 0 0 -80 0 -80 375 0 375 0 0 455 0 455 80 0 80 0 0 75 0 75 75 0
75 0 0 230 0 230 75 0 75 0 0 225 0 225 150 0 150 0 0 150 0 150 225 0 225 0
0 -75 0 -75 80 0 80 0 0 -75 0 -75 225 0 225 0 0 -75 0 -75 75 0 75 0 0 -75 0
-75 75 0 75 0 0 -230 0 -230 75 0 75 0 0 -75 0 -75 75 0 75 0 0 -75 0 -75 75
0 75 0 0 -75 0 -75 80 0 80 0 0 -75 0 -75 75 0 75 0 0 -75 0 -75 300 0 300 0
0 75 0 75 75 0 75 0 0 605 0 605 75 0 75 0 0 150 0 150 75 0 75 0 0 75 0 75
80 0 80 0 0 75 0 75 75 0 75 0 0 75 0 75 75 0 75 0 0 75 0 75 75 0 75 0 0 80
0 80 75 0 75 0 0 75 0 75 225 0 225 0 0 -75z"/>
<path d="M7020 7485 l0 -75 -75 0 -75 0 0 -75 0 -75 -75 0 -75 0 0 -450 0
-450 75 0 75 0 0 -80 0 -80 75 0 75 0 0 -75 0 -75 225 0 225 0 0 -75 0 -75 80
0 80 0 0 -75 0 -75 1055 0 1055 0 0 755 0 755 -150 0 -150 0 0 75 0 75 -75 0
-75 0 0 75 0 75 -1135 0 -1135 0 0 -75z m1210 -600 l0 -225 75 0 75 0 0 -75 0
-75 150 0 150 0 0 225 0 225 80 0 80 0 0 75 0 75 225 0 225 0 0 -375 0 -375
-680 0 -680 0 0 75 0 75 -150 0 -150 0 0 75 0 75 -80 0 -80 0 0 225 0 225 380
0 380 0 0 -225z"/>
</g>
</svg>
