<?xml version="1.0" standalone="no"?>
<!DOCTYPE svg PUBLIC "-//W3C//DTD SVG 20010904//EN"
 "http://www.w3.org/TR/2001/REC-SVG-20010904/DTD/svg10.dtd">
<svg version="1.0" xmlns="http://www.w3.org/2000/svg"
 width="1142.000000pt" height="1142.000000pt" viewBox="0 0 1142.000000 1142.000000"
 preserveAspectRatio="xMidYMid meet">

<g transform="translate(0.000000,1142.000000) scale(0.100000,-0.100000)"
fill="#000000" stroke="none">
<path d="M6015 11120 c-12 -4 -40 -33 -62 -63 -57 -75 -95 -87 -269 -87 -73 0
-139 -3 -148 -6 -9 -3 -31 -28 -51 -55 -59 -82 -77 -89 -244 -89 -162 0 -190
-9 -231 -76 -12 -19 -37 -46 -54 -59 -31 -24 -39 -25 -175 -25 -156 0 -201
-12 -238 -66 -54 -78 -64 -84 -138 -90 -131 -10 -132 -10 -182 -74 -61 -79
-94 -90 -270 -90 -74 0 -143 -5 -153 -10 -11 -6 -33 -30 -49 -54 -42 -61 -86
-86 -150 -86 -75 0 -143 -32 -169 -79 -37 -65 -52 -73 -149 -78 -101 -6 -120
-15 -168 -82 -19 -26 -56 -62 -82 -80 -26 -18 -64 -56 -83 -85 -31 -45 -42
-52 -85 -63 -28 -6 -73 -12 -101 -12 -58 -1 -90 -21 -124 -76 -11 -19 -36 -43
-54 -54 -31 -20 -49 -21 -267 -21 -262 0 -259 -1 -305 71 -35 55 -77 79 -142
79 -80 0 -140 30 -181 90 -20 30 -45 53 -64 59 -16 6 -85 11 -152 11 -167 0
-209 14 -255 82 -27 41 -44 55 -75 64 -58 18 -785 19 -807 2 -9 -7 -26 -29
-37 -48 -19 -31 -21 -51 -21 -180 0 -166 8 -190 80 -235 57 -36 80 -78 80
-145 0 -93 14 -125 74 -167 30 -20 64 -55 77 -76 13 -21 49 -58 79 -81 30 -23
68 -61 83 -84 16 -23 49 -56 73 -73 25 -17 61 -53 81 -80 19 -27 54 -61 76
-77 53 -34 79 -86 86 -172 7 -71 25 -108 67 -137 74 -50 84 -67 84 -141 0
-114 -6 -129 -71 -180 -64 -49 -79 -80 -79 -165 0 -63 -28 -117 -80 -150 -22
-15 -57 -50 -76 -78 -20 -27 -56 -63 -80 -80 -56 -38 -84 -92 -84 -161 0 -69
-23 -114 -84 -159 -27 -21 -61 -57 -77 -82 -15 -24 -44 -54 -63 -67 -59 -36
-86 -79 -86 -137 0 -27 -7 -73 -15 -101 -13 -43 -22 -56 -59 -77 -77 -45 -80
-51 -84 -190 -6 -168 3 -231 35 -261 l26 -24 324 0 c200 0 332 4 343 10 11 6
33 30 49 54 43 61 86 86 152 86 65 0 129 28 155 65 11 16 33 43 50 62 l32 33
139 0 c179 0 218 12 265 80 18 26 41 53 51 59 9 6 52 14 95 17 114 8 118 10
162 69 49 66 100 95 169 95 75 0 121 22 154 74 54 85 72 84 164 -10 l63 -64
242 0 242 0 76 -80 76 -80 244 0 243 0 36 -41 c39 -44 106 -111 159 -158 l32
-29 0 -558 0 -559 -69 -65 c-38 -36 -74 -75 -80 -87 -7 -15 -11 -140 -11 -392
0 -419 -2 -431 -68 -469 -20 -11 -48 -32 -62 -47 l-25 -27 -3 -321 c-4 -358
-2 -345 -74 -398 -82 -59 -78 -27 -78 -544 0 -449 -1 -461 -21 -494 -11 -19
-33 -44 -47 -55 -15 -11 -42 -35 -59 -52 l-33 -32 0 -558 c1 -458 3 -562 14
-577 31 -40 107 -57 255 -57 l139 0 41 -46 c23 -26 41 -50 41 -54 0 -3 17 -16
39 -28 36 -21 52 -22 242 -22 234 -1 276 -7 304 -47 19 -26 70 -78 146 -149
19 -17 45 -46 58 -63 13 -18 36 -37 50 -43 14 -6 97 -14 184 -17 l159 -6 31
-36 c18 -20 40 -48 49 -62 22 -32 96 -57 167 -57 l56 0 70 -75 70 -75 147 0
c167 0 222 13 240 59 6 14 14 99 18 189 6 157 7 164 32 188 21 22 36 26 104
30 116 8 120 9 170 74 64 81 89 90 267 90 132 0 144 2 170 23 32 26 47 90 47
207 0 148 -23 210 -91 246 -15 7 -44 36 -64 64 -21 28 -62 69 -91 91 -30 22
-61 53 -69 69 -8 16 -43 53 -78 81 -34 29 -74 70 -88 91 -38 57 -54 64 -149
71 -47 3 -93 9 -102 12 -9 4 -33 31 -54 60 -21 31 -60 69 -90 90 -49 32 -54
38 -48 63 11 46 32 71 71 81 21 6 124 11 228 11 202 0 244 6 282 42 23 21 23
23 23 258 0 230 -1 238 -23 271 -26 39 -75 57 -159 58 -63 1 -99 24 -138 87
-30 47 -85 74 -157 74 -79 1 -108 16 -157 80 -47 61 -62 68 -162 69 -84 1
-114 19 -132 79 -8 26 -12 135 -12 327 0 318 3 335 64 377 17 12 43 33 59 46
l27 26 0 551 0 552 29 40 c16 22 45 50 64 62 70 43 67 20 67 533 1 527 -4 495
88 567 28 23 63 58 76 79 43 68 36 67 292 70 217 3 235 2 272 -17 25 -13 49
-37 65 -63 33 -57 54 -67 161 -76 87 -7 89 -8 119 -44 25 -32 31 -49 37 -115
8 -95 16 -111 81 -158 28 -21 55 -49 60 -62 13 -35 12 -3747 -1 -3795 -8 -28
-25 -48 -67 -80 -32 -24 -60 -55 -64 -68 -4 -14 -7 -265 -8 -558 -1 -600 -4
-579 73 -631 25 -17 59 -51 76 -76 17 -24 57 -65 90 -90 32 -25 61 -54 65 -64
3 -11 24 -36 45 -55 38 -34 44 -36 113 -37 102 -1 115 -7 158 -69 25 -36 49
-58 71 -66 21 -8 102 -13 225 -13 106 -1 215 -6 243 -12 45 -10 56 -17 92 -65
23 -30 51 -60 62 -67 14 -7 103 -14 251 -17 142 -4 242 -11 260 -18 18 -7 41
-31 57 -57 49 -81 44 -80 376 -83 162 -2 305 -1 318 2 13 4 39 20 59 37 l35
31 0 149 c0 173 -12 211 -79 254 -22 13 -48 37 -58 51 -10 15 -53 62 -95 104
l-78 76 1 69 c1 107 15 136 75 157 42 15 92 17 333 18 390 0 377 -8 375 245 0
73 -5 142 -12 157 -6 15 -34 44 -62 64 -28 20 -64 56 -81 80 -16 24 -54 62
-83 84 -30 21 -63 54 -75 73 -12 19 -46 56 -76 82 -90 77 -92 100 -12 150 24
16 59 50 78 76 19 26 59 66 90 88 49 35 57 45 67 91 27 116 12 167 -68 225
-27 20 -59 51 -71 68 -52 75 -69 87 -128 88 -121 1 -141 9 -187 69 -49 64 -97
89 -172 90 -69 0 -95 15 -165 94 l-58 66 -67 0 c-106 0 -138 13 -173 71 -17
27 -51 63 -75 80 -79 54 -78 53 -84 325 -5 242 -5 243 -30 269 -14 15 -37 33
-52 41 -15 8 -39 34 -53 58 l-26 44 3 539 c3 605 -2 565 80 620 79 53 77 34
77 720 1 445 4 609 13 628 17 37 77 65 138 65 67 0 111 20 146 66 67 88 71 90
167 96 100 7 122 17 166 82 35 51 93 76 173 76 64 0 94 17 143 80 50 65 79 80
152 81 84 0 121 17 158 69 42 60 83 80 169 80 l69 0 78 80 77 80 59 1 c92 1
134 18 160 64 21 38 23 51 22 235 -1 269 -1 273 -69 324 -30 23 -72 64 -92 91
-21 28 -54 61 -74 75 -58 39 -73 67 -80 148 -8 84 2 112 52 142 29 18 50 20
265 20 l234 0 65 69 c78 83 93 91 162 91 79 0 139 33 155 85 16 56 16 131 -2
164 -8 16 -37 45 -65 66 -27 20 -62 55 -78 78 -15 23 -48 57 -74 77 -25 19
-65 59 -87 88 -23 28 -59 63 -81 77 -21 13 -53 45 -70 70 -17 25 -55 63 -84
85 -30 21 -63 55 -75 74 -12 19 -51 58 -87 86 -35 29 -64 56 -64 61 0 5 -16
26 -35 48 -34 37 -36 38 -125 45 -50 4 -97 9 -105 12 -7 3 -33 31 -55 61 -48
63 -87 83 -159 83 -71 0 -128 31 -169 90 -40 57 -62 67 -166 73 -76 4 -81 6
-110 40 -17 19 -39 46 -48 60 -22 32 -96 57 -166 57 l-55 0 -71 74 -71 73 -82
7 c-111 9 -126 16 -168 80 -31 46 -43 56 -80 65 -24 6 -65 11 -90 11 -61 0
-78 10 -155 91 l-65 69 -144 0 c-164 0 -214 14 -250 73 -38 62 -61 75 -136 82
-132 11 -131 11 -172 70 -21 29 -49 59 -63 66 -17 9 -99 15 -255 20 -128 3
-242 11 -257 17 -15 6 -45 36 -67 66 -31 41 -50 58 -78 65 -46 13 -928 14
-958 1z m835 -325 c13 -11 33 -37 46 -57 43 -68 61 -72 319 -78 259 -6 261 -6
312 -82 35 -52 92 -77 178 -77 l59 -1 73 -75 72 -75 144 0 c134 0 146 -2 195
-26 28 -14 54 -33 57 -43 3 -9 20 -33 38 -53 31 -34 35 -35 124 -41 51 -4 101
-12 111 -18 10 -7 31 -32 47 -57 35 -54 88 -81 163 -82 69 0 84 -9 162 -91
l66 -69 59 0 c116 0 133 -7 179 -71 36 -51 47 -59 97 -73 30 -9 77 -16 104
-16 47 0 50 -2 120 -75 70 -73 72 -75 121 -75 27 0 71 -6 99 -13 41 -11 56
-22 95 -70 25 -31 64 -70 87 -86 23 -17 55 -50 71 -74 45 -65 53 -69 159 -77
l97 -7 31 -38 c38 -49 91 -102 141 -141 l39 -31 -1 -96 c-1 -112 -10 -128 -79
-146 -24 -6 -104 -11 -177 -11 -151 0 -158 -3 -209 -76 -49 -72 -86 -84 -256
-84 -141 0 -143 0 -173 -27 -35 -33 -50 -94 -50 -208 0 -123 14 -175 57 -212
21 -18 49 -43 62 -56 13 -14 48 -49 79 -79 30 -31 69 -70 86 -87 17 -17 66
-67 109 -110 42 -42 77 -83 77 -90 0 -15 -66 -78 -89 -86 -9 -3 -33 -29 -55
-59 -21 -29 -62 -71 -91 -92 -29 -21 -60 -49 -69 -63 -48 -81 -56 -85 -160
-92 -105 -7 -130 -19 -163 -82 -9 -18 -34 -38 -66 -53 -47 -21 -65 -24 -190
-24 -76 0 -147 -5 -157 -10 -11 -6 -33 -31 -51 -56 -40 -59 -82 -84 -139 -84
-95 0 -138 -25 -210 -119 -24 -32 -28 -33 -121 -41 -53 -4 -105 -14 -117 -21
-47 -30 -47 -21 -52 -782 l-5 -719 -30 -24 c-16 -14 -42 -32 -57 -41 -59 -36
-58 -20 -58 -876 l0 -783 28 -26 c15 -14 40 -33 55 -43 58 -37 65 -68 69 -315
4 -254 8 -269 76 -308 22 -12 58 -47 81 -77 50 -66 84 -85 152 -85 90 0 127
-17 166 -76 41 -61 64 -72 176 -81 70 -5 80 -9 102 -35 32 -38 31 -58 -2 -90
-24 -21 -41 -26 -108 -32 -44 -3 -90 -9 -103 -12 -35 -10 -62 -73 -62 -144 0
-74 25 -129 73 -157 18 -11 44 -35 57 -53 35 -45 79 -90 123 -123 21 -16 48
-45 61 -66 13 -20 46 -52 72 -70 27 -19 65 -57 84 -85 40 -57 77 -74 170 -75
42 -1 64 -7 93 -26 l37 -26 -20 -39 c-37 -72 -22 -70 -437 -70 -387 0 -403 -2
-450 -44 -22 -19 -23 -27 -23 -168 0 -180 10 -211 80 -260 27 -18 56 -46 66
-63 10 -16 52 -63 93 -102 l75 -73 -29 -30 c-46 -48 -76 -53 -316 -48 -243 4
-236 2 -285 80 -44 70 -69 76 -331 80 -259 3 -245 0 -304 84 -34 49 -87 74
-160 74 -65 0 -81 9 -160 88 -37 37 -84 81 -105 99 l-39 31 -3 404 c-3 402 -3
404 19 432 12 15 39 39 61 52 25 16 47 41 59 67 18 41 19 100 19 2141 l0 2098
-22 39 c-12 22 -40 50 -64 64 -59 35 -70 57 -77 159 -7 97 -18 119 -74 142
-18 8 -55 14 -82 14 -78 0 -120 23 -168 90 l-41 58 -94 7 c-51 3 -303 5 -560
3 -528 -3 -486 3 -557 -89 -18 -24 -52 -56 -75 -70 -76 -48 -70 -11 -77 -533
-3 -259 -10 -484 -14 -499 -5 -18 -28 -43 -65 -69 -49 -34 -60 -48 -69 -84 -7
-28 -11 -220 -11 -553 0 -589 4 -561 -89 -634 -55 -42 -58 -47 -64 -98 -12
-96 -8 -1228 4 -1251 16 -30 86 -58 150 -58 67 0 120 -31 168 -97 17 -23 38
-46 48 -51 10 -5 58 -12 106 -15 49 -3 95 -11 103 -18 8 -7 14 -30 14 -59 0
-44 -3 -49 -39 -73 -21 -14 -56 -47 -77 -74 -74 -95 -70 -93 -237 -93 -126 0
-153 -3 -185 -19 -54 -28 -62 -53 -62 -204 0 -194 27 -235 163 -246 84 -7 114
-23 157 -83 17 -23 52 -56 78 -74 26 -17 60 -50 75 -73 39 -58 80 -81 147 -81
78 -1 131 -28 176 -90 20 -28 48 -57 63 -64 14 -8 36 -25 49 -39 l23 -24 -21
-44 c-12 -25 -37 -54 -55 -66 -18 -12 -46 -41 -62 -65 -46 -70 -83 -82 -258
-86 -191 -4 -204 -13 -215 -150 -7 -78 -26 -109 -82 -138 -28 -14 -28 -14 -70
45 -57 80 -91 91 -278 91 -153 0 -144 -4 -219 90 -18 23 -52 55 -74 71 -22 16
-54 51 -71 77 -44 66 -64 71 -297 71 -248 1 -279 9 -329 82 -19 28 -42 55 -52
60 -10 6 -58 13 -106 16 -49 3 -97 12 -109 21 -44 28 -53 92 -53 386 0 244 2
275 19 313 11 23 32 49 48 59 15 10 43 31 61 48 l32 30 0 460 c0 530 -2 516
88 581 28 19 54 43 58 53 4 9 10 161 14 337 4 245 8 325 19 340 7 11 33 35 58
53 86 65 83 47 83 469 0 431 -1 428 81 481 27 18 54 44 59 58 6 15 10 326 10
794 0 876 4 827 -80 879 -29 18 -57 46 -71 71 -40 70 -54 74 -314 81 -136 3
-241 10 -258 17 -15 6 -41 33 -57 59 -48 75 -54 77 -315 84 -126 3 -241 10
-254 15 -14 6 -43 35 -66 65 -55 72 -76 77 -308 78 -239 1 -266 -5 -316 -73
-21 -28 -45 -57 -54 -64 -9 -8 -55 -16 -109 -19 -88 -6 -95 -8 -123 -38 -16
-18 -38 -44 -48 -59 -26 -38 -87 -66 -147 -66 -67 0 -121 -29 -160 -85 -17
-24 -39 -49 -50 -55 -10 -5 -76 -10 -147 -11 -70 0 -150 -6 -178 -12 -43 -11
-54 -18 -87 -67 -50 -71 -74 -78 -253 -79 -158 -1 -188 7 -193 53 -6 49 7 74
52 106 25 16 57 49 73 72 16 23 50 59 76 78 72 55 81 73 88 175 7 89 7 90 44
120 40 31 72 62 141 136 23 24 60 60 83 80 40 35 41 37 42 105 2 110 8 123 71
172 32 23 72 63 90 88 17 24 53 58 79 75 30 19 52 42 59 62 18 51 24 214 10
295 -12 72 -13 73 -63 107 -27 19 -70 59 -94 89 -24 31 -61 67 -83 81 -22 14
-51 42 -64 64 -24 37 -102 111 -118 111 -4 0 -23 22 -41 50 -19 27 -53 63 -76
80 -59 43 -81 83 -81 150 -1 76 -27 130 -84 169 -58 40 -76 67 -76 111 0 46
-15 60 -60 60 -38 0 -56 14 -80 58 -10 21 -9 27 11 48 28 30 44 30 85 -1 27
-20 33 -33 36 -68 l3 -42 274 -3 c274 -2 275 -2 307 -27 18 -13 42 -40 54 -59
30 -49 78 -76 134 -76 93 0 133 -17 177 -76 21 -29 49 -59 62 -66 16 -10 113
-14 382 -16 198 -2 379 -1 401 3 42 6 59 19 117 89 39 47 80 66 147 66 67 0
121 28 157 82 16 23 48 56 72 72 23 16 59 51 78 78 52 72 69 78 228 78 161 0
193 11 252 91 21 27 57 61 81 75 23 14 54 43 67 64 14 22 42 51 62 65 36 24
44 25 183 25 166 0 190 8 235 80 36 57 78 80 145 80 95 0 126 14 167 75 45 70
66 76 253 82 80 2 155 9 168 15 12 6 36 33 53 59 44 69 76 79 253 79 141 0
145 1 176 26 17 15 37 39 45 55 8 15 35 40 58 54 41 24 52 25 184 25 158 0
182 9 233 83 14 21 39 47 55 58 29 19 43 20 346 17 301 -3 318 -4 339 -23z"/>
<path d="M6033 9393 c-26 -3 -41 -16 -73 -61 -22 -30 -62 -71 -88 -89 -26 -19
-63 -56 -83 -83 -19 -27 -54 -63 -76 -79 -23 -16 -57 -51 -77 -77 -20 -26 -59
-63 -86 -81 -28 -18 -50 -37 -50 -42 0 -16 -82 -102 -112 -117 -54 -28 -68
-79 -68 -246 l0 -148 29 -32 28 -32 164 -7 c90 -4 174 -11 186 -14 12 -4 38
-31 59 -60 21 -31 50 -59 68 -67 24 -10 134 -13 503 -13 l471 0 27 25 c14 13
35 39 46 56 35 57 95 74 259 74 l142 0 32 34 c17 19 44 51 60 70 15 20 40 43
55 52 15 9 37 30 49 48 21 31 22 41 22 275 l0 242 -27 24 c-61 53 -129 122
-154 155 -25 33 -28 34 -117 41 -51 4 -101 11 -112 14 -11 3 -36 30 -55 59
-19 29 -47 59 -62 67 -23 11 -111 14 -478 15 -247 1 -465 -1 -482 -3z m807
-323 c10 -5 34 -32 54 -60 42 -59 86 -80 164 -80 51 0 57 -3 99 -45 25 -24 43
-50 41 -57 -3 -7 -27 -29 -55 -48 -27 -19 -68 -60 -90 -91 -35 -47 -48 -58
-86 -68 -25 -6 -67 -11 -92 -11 -60 0 -93 -18 -138 -76 -67 -85 -61 -84 -321
-84 l-229 0 -78 80 -77 80 -54 0 c-30 0 -78 7 -106 15 -47 14 -52 18 -52 45 0
72 41 100 144 100 26 0 59 6 74 14 52 27 62 47 69 145 6 88 7 93 40 121 l34
30 320 0 c189 0 328 -4 339 -10z"/>
<path d="M6338 8910 c-56 -30 -68 -54 -68 -133 0 -92 17 -130 69 -150 93 -38
202 -7 227 63 16 44 17 131 4 162 -30 66 -159 98 -232 58z"/>
</g>
</svg>
