<?xml version="1.0" standalone="no"?>
<!DOCTYPE svg PUBLIC "-//W3C//DTD SVG 20010904//EN"
 "http://www.w3.org/TR/2001/REC-SVG-20010904/DTD/svg10.dtd">
<svg version="1.0" xmlns="http://www.w3.org/2000/svg"
 width="1474.000000pt" height="1474.000000pt" viewBox="0 0 1474.000000 1474.000000"
 preserveAspectRatio="xMidYMid meet">

<g transform="translate(0.000000,1474.000000) scale(0.100000,-0.100000)"
fill="#000000" stroke="none">
<path d="M6998 14457 c-43 -34 -67 -101 -68 -182 -2 -104 -15 -133 -85 -180
-106 -72 -99 -35 -105 -607 -6 -567 3 -519 -101 -590 -107 -74 -99 -36 -99
-486 0 -429 1 -424 -59 -475 -25 -21 -45 -26 -118 -32 -83 -7 -90 -6 -139 19
-37 20 -62 43 -86 79 -51 78 -71 88 -185 96 -125 9 -165 29 -213 105 -25 40
-54 69 -102 101 -39 26 -74 58 -84 77 -46 88 -100 118 -216 118 -30 0 -76 7
-102 16 -42 14 -54 25 -88 79 -57 92 -76 98 -315 105 -219 6 -222 7 -282 98
-25 39 -47 58 -87 78 l-53 26 -378 -4 c-420 -3 -411 -2 -453 -71 -18 -29 -20
-51 -20 -234 l0 -201 26 -32 c15 -17 51 -46 80 -65 76 -49 85 -67 91 -187 7
-124 20 -151 100 -205 95 -64 95 -64 101 -275 4 -173 3 -186 -17 -225 -11 -23
-36 -53 -54 -67 l-34 -26 -587 0 c-635 0 -613 2 -666 -55 l-25 -27 -3 -394
c-3 -376 -2 -396 17 -439 13 -29 32 -52 52 -63 55 -29 95 -69 109 -109 11 -29
15 -133 19 -430 l6 -392 30 -31 c17 -17 47 -41 68 -53 22 -12 50 -40 63 -63
l24 -41 0 -392 c0 -444 3 -426 -78 -477 -25 -16 -61 -44 -79 -63 l-33 -34 0
-1091 c0 -1058 1 -1092 20 -1134 12 -26 32 -49 51 -60 57 -30 95 -70 107 -110
9 -28 12 -198 13 -583 0 -299 4 -565 8 -592 9 -54 37 -89 94 -118 20 -11 51
-38 67 -61 l30 -41 0 -397 0 -396 25 -34 c13 -18 51 -50 83 -70 84 -53 92 -70
92 -188 0 -119 12 -142 108 -211 35 -25 69 -55 75 -66 7 -12 13 -93 15 -206 4
-172 3 -189 -17 -226 -11 -22 -34 -52 -51 -67 -30 -24 -38 -26 -135 -26 -97 0
-105 -2 -135 -26 -17 -15 -46 -51 -65 -80 -22 -34 -55 -66 -92 -91 -36 -24
-73 -60 -99 -98 -25 -36 -65 -76 -100 -100 -35 -24 -75 -64 -100 -100 -25 -36
-65 -76 -100 -100 -36 -25 -75 -64 -102 -103 -28 -39 -63 -75 -96 -96 -34 -22
-69 -57 -97 -97 -29 -41 -65 -77 -102 -102 -85 -56 -91 -72 -95 -267 -3 -104
0 -185 8 -218 10 -48 17 -57 58 -83 l47 -30 290 3 c334 3 318 0 384 97 73 107
49 101 393 101 266 0 303 -2 329 -17 27 -16 49 -62 49 -104 0 -18 -42 -59 -88
-85 -48 -27 -82 -98 -82 -171 -1 -73 -16 -142 -38 -167 -9 -10 -37 -32 -62
-48 -24 -15 -57 -47 -73 -71 -29 -41 -29 -44 -24 -147 l5 -104 41 -38 40 -38
296 0 c239 0 301 3 324 14 28 15 64 53 111 119 36 51 51 57 158 64 123 7 158
24 216 104 25 34 67 76 94 94 49 34 74 60 125 134 33 47 65 59 182 68 105 8
143 28 195 103 27 37 63 73 100 96 38 25 69 56 94 96 25 38 60 73 99 101 38
26 78 66 105 104 50 72 86 88 214 96 93 6 125 21 152 67 20 34 21 49 21 532 0
570 9 517 -101 595 -36 26 -72 62 -93 95 -21 35 -56 70 -96 98 -35 24 -79 68
-100 98 -20 30 -64 73 -95 95 -32 23 -70 60 -84 82 -23 35 -26 49 -26 136 0
89 -2 100 -25 127 -14 17 -48 45 -76 62 -31 20 -65 55 -87 89 -21 31 -60 72
-87 91 -27 19 -64 50 -82 68 -33 33 -33 34 -33 135 0 123 -11 147 -98 206 -96
65 -102 77 -102 194 0 113 -12 143 -76 187 -20 14 -55 42 -78 62 l-41 37 -5
303 c-6 351 -4 343 -105 415 -92 64 -89 52 -93 468 -4 446 -3 455 94 519 93
61 97 74 104 301 7 216 11 231 80 282 105 78 115 98 122 236 5 89 8 101 32
126 27 28 29 28 78 17 46 -10 54 -16 87 -65 22 -34 61 -73 101 -101 36 -25 72
-59 80 -76 13 -24 16 -122 20 -624 4 -483 8 -600 19 -622 8 -15 42 -46 77 -68
91 -60 97 -78 104 -322 6 -223 3 -216 102 -280 66 -42 84 -80 92 -203 4 -60
13 -109 21 -122 8 -12 42 -40 74 -62 84 -57 97 -84 104 -210 7 -120 14 -134
89 -184 60 -39 85 -65 117 -120 13 -21 48 -55 80 -76 63 -43 87 -69 120 -124
13 -21 49 -55 81 -77 31 -21 69 -53 84 -70 24 -30 26 -38 26 -136 l0 -104 36
-39 c19 -22 55 -51 79 -65 24 -14 53 -43 66 -63 30 -52 84 -107 134 -139 24
-14 55 -46 71 -71 33 -52 86 -101 117 -107 12 -3 63 -7 114 -9 105 -4 110 -6
179 -101 24 -33 67 -76 96 -96 29 -20 69 -58 89 -86 43 -59 70 -85 129 -127
24 -18 62 -59 84 -91 22 -32 59 -70 81 -84 57 -35 82 -60 122 -120 22 -33 56
-66 90 -88 30 -19 68 -55 86 -81 17 -27 46 -63 63 -80 32 -33 33 -33 130 -33
124 0 159 -18 222 -108 28 -40 63 -75 97 -97 86 -55 90 -67 90 -295 0 -229 -2
-234 -90 -296 -95 -67 -121 -142 -94 -277 8 -39 20 -64 41 -84 l29 -28 205 -3
c241 -4 253 0 319 99 22 33 49 65 59 71 11 6 59 13 108 16 173 10 221 -36 230
-222 6 -111 6 -111 110 -182 65 -45 88 -98 88 -205 0 -107 17 -139 86 -163 83
-28 213 -17 258 22 10 10 34 39 52 66 18 28 60 68 95 92 34 24 68 53 76 64 9
13 17 57 20 118 8 133 39 188 135 238 40 21 59 72 66 174 9 154 49 193 204
203 55 3 100 11 125 23 33 17 40 27 56 79 17 56 18 114 15 925 l-3 865 -24 32
c-31 41 -65 53 -173 60 -110 7 -149 28 -204 108 -59 87 -63 88 -404 95 -226 4
-291 8 -315 20 -16 8 -48 42 -69 74 -47 70 -94 95 -176 96 -61 0 -153 22 -177
41 -8 7 -30 37 -49 66 -45 70 -84 89 -201 96 -51 3 -105 12 -120 19 -15 7 -46
40 -68 73 -57 83 -92 101 -215 108 -111 7 -137 18 -171 76 -33 54 -68 90 -126
127 -31 21 -66 55 -90 91 -59 90 -86 103 -205 103 -86 0 -104 3 -126 21 -52
40 -62 67 -62 162 0 122 -25 168 -124 227 -21 13 -53 46 -71 75 -34 52 -72 89
-143 137 -34 22 -42 35 -51 78 -6 28 -11 77 -11 108 0 84 -30 137 -103 185
-95 63 -91 41 -95 562 -4 566 -5 560 104 631 31 20 66 55 88 87 34 53 88 107
106 107 18 0 72 -54 107 -107 60 -91 66 -93 293 -93 226 0 232 -2 299 -99 56
-82 70 -89 191 -97 123 -8 150 -21 208 -104 20 -30 65 -74 100 -99 35 -25 78
-68 96 -96 62 -93 52 -89 280 -95 242 -7 255 -11 317 -106 27 -42 51 -67 72
-75 19 -7 108 -15 217 -18 222 -7 243 -14 305 -105 61 -89 61 -89 405 -96 211
-4 301 -9 317 -18 41 -23 66 -88 73 -194 9 -115 19 -135 95 -183 34 -22 69
-57 97 -97 26 -38 65 -77 97 -99 79 -53 97 -89 105 -211 7 -115 16 -135 79
-175 63 -40 86 -63 123 -120 18 -29 53 -65 76 -80 64 -40 87 -62 124 -121 51
-79 79 -92 197 -92 116 0 139 -11 192 -95 19 -29 48 -64 65 -79 l32 -26 289 0
c269 0 293 1 328 20 79 40 81 47 81 274 0 199 0 203 -25 236 -13 18 -48 49
-76 69 -98 68 -93 51 -99 389 -6 344 -4 339 -106 408 -91 62 -88 46 -92 554
-4 505 0 552 54 600 33 29 38 30 130 30 119 0 149 15 217 106 28 37 69 78 95
94 77 48 94 83 103 212 10 126 14 135 106 194 32 20 66 54 90 90 24 36 61 73
98 99 33 23 70 60 83 81 22 37 23 47 20 229 -3 216 -7 229 -79 266 -38 19 -55
20 -239 17 l-199 -3 -31 -30 c-18 -16 -40 -46 -50 -66 -11 -20 -40 -51 -66
-68 l-47 -31 -493 0 -492 0 -31 -26 c-17 -14 -47 -50 -66 -79 -20 -29 -47 -61
-61 -70 -25 -16 -27 -16 -66 11 -22 16 -55 51 -73 80 -18 28 -50 61 -71 74
-56 34 -92 68 -129 126 -18 28 -50 61 -71 74 -56 34 -92 68 -129 126 -18 28
-50 61 -71 74 -22 13 -56 39 -76 59 l-38 35 0 102 c0 121 -11 143 -110 217
-36 27 -74 64 -86 83 -30 50 -62 81 -122 121 -30 20 -63 53 -77 77 -27 46 -72
91 -128 128 -20 14 -54 49 -75 79 -20 29 -60 70 -87 90 -60 43 -86 69 -129
129 -17 25 -57 63 -89 85 -33 24 -74 65 -98 101 -28 40 -60 72 -96 95 -37 23
-69 54 -98 98 -30 44 -62 76 -107 105 l-63 42 3 49 c2 28 10 57 18 65 28 29
97 40 255 40 206 0 233 9 288 94 62 94 76 99 311 106 225 6 228 7 287 96 26
40 51 63 85 80 45 23 57 24 230 24 127 0 191 4 208 13 13 7 44 41 69 76 60 87
80 97 208 105 58 4 114 11 124 17 10 5 36 36 58 68 42 61 84 102 132 126 16 9
46 42 68 74 22 32 54 70 71 85 30 24 38 26 132 26 122 0 146 11 203 100 25 39
57 72 88 92 26 17 60 47 75 66 l27 35 3 310 3 309 -41 39 -41 39 -406 0 -406
0 -34 -26 c-18 -14 -49 -49 -68 -79 -62 -98 5 -90 -775 -93 -481 -2 -694 -6
-715 -14 -41 -15 -70 -43 -101 -96 -47 -80 -56 -82 -453 -82 -205 0 -370 -4
-408 -11 -67 -12 -63 -9 -136 -108 -52 -71 -84 -83 -204 -78 -116 4 -128 11
-163 81 -19 41 -20 60 -20 629 l0 587 -27 30 c-16 17 -50 45 -77 63 -88 58
-88 58 -94 289 -5 230 -9 243 -88 293 -23 15 -54 40 -70 56 l-29 30 -5 202
c-6 248 -9 255 -148 347 -31 21 -51 82 -52 162 0 107 -32 163 -123 217 -21 13
-53 48 -73 78 -68 107 -56 103 -298 103 -204 0 -212 -1 -238 -23z m466 -788
c57 -45 66 -81 66 -271 0 -210 7 -239 63 -278 140 -97 137 -90 137 -332 l0
-197 30 -35 c17 -19 51 -46 75 -61 25 -14 56 -42 70 -63 l25 -37 0 -683 c0
-650 1 -685 19 -720 41 -81 15 -77 453 -80 378 -3 391 -2 433 18 26 12 54 37
71 63 41 61 66 88 94 100 16 8 159 13 415 17 449 6 429 1 500 104 70 102 23
97 821 94 l684 -3 32 -32 32 -32 -15 -48 c-13 -41 -24 -54 -72 -86 -35 -23
-69 -57 -90 -90 -60 -92 -70 -97 -194 -105 -130 -8 -160 -24 -214 -109 -52
-82 -63 -86 -279 -90 -230 -5 -255 -13 -315 -105 -55 -86 -70 -91 -300 -97
-139 -5 -198 -10 -219 -21 -17 -8 -50 -44 -75 -79 -71 -100 -70 -99 -506 -100
-218 -1 -375 -5 -398 -12 -30 -8 -46 -22 -80 -74 -29 -44 -61 -77 -104 -105
-48 -33 -66 -53 -82 -91 -24 -54 -27 -126 -10 -197 14 -57 29 -74 95 -117 32
-20 68 -57 95 -96 25 -35 56 -70 71 -76 14 -7 71 -17 126 -21 119 -10 151 -27
202 -103 20 -31 62 -72 99 -98 39 -28 78 -67 100 -101 21 -32 60 -71 95 -95
89 -63 106 -98 106 -218 0 -99 0 -99 33 -130 17 -18 53 -47 80 -64 26 -18 62
-56 82 -87 22 -35 57 -70 97 -98 40 -27 77 -64 100 -99 22 -34 58 -70 90 -92
60 -39 85 -65 117 -120 13 -20 44 -51 69 -69 68 -45 90 -67 127 -124 19 -30
54 -65 86 -86 60 -40 86 -66 117 -119 12 -20 48 -54 79 -76 101 -71 102 -74
110 -201 6 -108 7 -113 39 -150 17 -21 52 -50 76 -65 24 -16 54 -45 68 -65 35
-53 71 -92 102 -108 22 -11 101 -14 421 -14 450 0 414 -7 481 95 20 30 52 66
70 80 33 25 35 25 228 25 l195 0 42 -30 c23 -17 44 -37 47 -45 11 -27 -39 -98
-94 -135 -30 -19 -63 -51 -75 -71 -38 -61 -63 -87 -116 -122 -31 -21 -69 -59
-95 -97 -64 -92 -81 -100 -204 -100 -101 0 -103 0 -138 -32 -22 -21 -38 -48
-44 -73 -5 -22 -10 -155 -10 -296 0 -336 -2 -331 132 -413 56 -34 61 -63 67
-386 7 -338 3 -324 98 -387 38 -26 64 -52 80 -83 23 -43 24 -51 20 -230 -2
-117 -8 -193 -15 -207 -7 -12 -28 -34 -48 -49 -32 -25 -37 -26 -61 -13 -15 8
-38 31 -52 52 -45 68 -91 115 -137 142 -28 16 -58 47 -79 78 -37 58 -73 93
-127 126 -20 12 -50 43 -67 69 -35 55 -81 100 -135 132 -49 30 -65 69 -75 185
-10 114 -26 145 -106 200 -51 34 -63 48 -77 90 -9 28 -17 79 -18 115 -1 77
-26 140 -66 167 -26 16 -60 18 -414 21 -456 3 -447 1 -516 106 -55 82 -71 87
-304 95 -134 4 -193 10 -215 21 -16 8 -47 41 -68 73 -48 72 -80 88 -187 98
-131 11 -157 23 -208 97 -56 81 -90 98 -209 105 -51 3 -105 12 -119 19 -15 7
-46 40 -69 73 -57 83 -93 101 -213 108 -53 3 -105 8 -114 12 -10 4 -41 38 -68
76 -71 97 -93 109 -210 109 -55 1 -104 6 -116 13 -23 13 -55 50 -93 108 -45
67 -74 79 -188 79 -96 0 -103 2 -134 27 -17 15 -47 51 -66 81 -51 79 -78 92
-196 92 l-97 0 -48 -49 c-26 -27 -63 -68 -81 -91 -19 -23 -55 -55 -81 -72 -25
-16 -65 -57 -89 -91 -26 -38 -66 -77 -102 -102 -32 -21 -64 -50 -71 -64 -10
-19 -13 -185 -13 -831 0 -920 -10 -820 92 -887 63 -40 93 -92 93 -160 0 -76
18 -164 37 -186 10 -10 41 -34 69 -52 75 -48 90 -80 98 -205 7 -116 17 -138
77 -177 66 -42 90 -66 124 -119 22 -34 54 -66 87 -88 59 -38 84 -63 117 -119
13 -20 38 -49 55 -62 30 -23 42 -25 132 -25 119 0 147 -13 198 -92 37 -58 60
-81 122 -120 23 -15 59 -53 80 -84 57 -85 72 -92 194 -100 120 -8 161 -27 198
-92 11 -20 34 -50 51 -66 29 -27 37 -30 133 -35 124 -7 170 -29 220 -105 51
-76 70 -86 184 -95 119 -9 169 -31 202 -87 32 -56 56 -82 88 -96 17 -7 107
-14 214 -17 220 -7 243 -15 303 -101 47 -69 106 -100 190 -100 83 0 141 -17
174 -52 l28 -29 3 -483 c3 -445 2 -486 -15 -530 -27 -72 -51 -86 -169 -95
-134 -11 -172 -29 -196 -96 -9 -27 -17 -77 -18 -111 0 -112 -30 -164 -92 -164
-88 0 -99 28 -107 280 -7 211 -14 234 -76 265 -74 37 -416 31 -464 -8 -7 -6
-30 -37 -52 -68 -33 -49 -44 -58 -84 -68 -56 -14 -69 -7 -96 54 -16 33 -19 67
-19 201 0 218 -9 247 -91 299 -41 27 -74 59 -100 97 -52 76 -100 108 -160 108
-25 0 -74 3 -108 6 -68 8 -93 25 -142 104 -16 26 -52 61 -87 85 -32 21 -70 55
-83 74 -13 19 -45 57 -71 83 l-48 48 -104 0 c-99 0 -106 1 -137 27 -17 15 -47
51 -66 80 -19 30 -52 65 -76 79 -60 38 -85 62 -123 122 -19 29 -49 61 -66 70
-51 28 -98 72 -133 128 -21 33 -54 66 -87 87 -59 38 -84 63 -118 121 -13 21
-46 53 -74 71 -58 37 -92 73 -125 128 -13 20 -44 51 -69 69 -68 45 -90 67
-127 124 -18 28 -50 61 -71 74 -57 34 -82 58 -125 121 -21 32 -55 67 -76 80
-21 12 -55 38 -75 58 l-38 35 0 101 c0 114 -11 143 -76 191 -47 36 -108 97
-152 152 -18 23 -56 57 -85 76 -28 19 -58 45 -65 57 -8 12 -16 65 -19 118 -7
124 -24 157 -108 218 -40 29 -69 58 -76 77 -7 17 -15 114 -18 221 -7 223 -11
232 -103 297 -47 33 -67 54 -78 83 -13 34 -16 150 -20 731 -6 786 4 704 -95
770 -27 18 -71 61 -96 96 -57 79 -95 98 -214 108 -49 4 -102 12 -117 18 -15 6
-44 37 -65 69 -22 34 -55 67 -78 81 -36 21 -50 23 -140 19 -115 -3 -133 -12
-175 -78 -35 -57 -61 -82 -122 -120 -68 -43 -77 -63 -85 -185 -7 -125 -19
-148 -107 -210 -92 -64 -90 -55 -94 -389 -4 -338 -5 -342 -97 -401 -97 -62
-90 -4 -90 -700 l0 -612 25 -27 c13 -14 43 -38 66 -52 22 -14 52 -42 65 -61
24 -35 24 -39 29 -337 6 -343 3 -331 93 -388 29 -19 65 -49 80 -66 l27 -33 0
-203 0 -203 26 -31 c14 -17 52 -50 85 -73 33 -22 69 -57 81 -77 32 -54 57 -79
121 -123 74 -50 87 -80 87 -195 0 -78 3 -93 25 -125 14 -20 50 -53 80 -73 33
-23 69 -59 92 -93 23 -34 63 -74 102 -102 39 -27 78 -66 100 -100 22 -33 60
-71 96 -96 36 -25 76 -65 100 -100 24 -35 66 -76 105 -104 46 -33 68 -56 77
-81 7 -21 12 -101 12 -214 1 -221 -6 -241 -95 -299 -42 -27 -72 -58 -101 -101
-35 -53 -49 -65 -89 -79 -26 -9 -70 -16 -96 -16 -56 0 -136 -17 -157 -34 -28
-22 -51 -90 -51 -152 0 -33 -7 -84 -15 -112 -21 -71 -63 -92 -198 -103 -115
-9 -133 -18 -184 -95 -27 -41 -51 -63 -87 -81 -46 -24 -57 -25 -135 -19 -142
11 -166 38 -180 207 -9 106 -28 140 -104 194 -32 22 -67 56 -78 75 -28 47 -68
89 -101 106 -22 11 -101 14 -422 14 l-395 0 -26 23 c-23 19 -27 32 -28 77 l-2
55 62 40 c45 29 74 58 104 104 23 35 55 71 72 80 51 28 87 62 127 121 56 83
71 90 187 90 89 0 102 3 135 25 21 14 56 52 78 84 24 37 61 74 96 98 97 65 94
47 94 508 l0 401 -33 31 c-17 17 -51 42 -73 56 -73 45 -84 70 -84 187 0 121
-9 138 -100 200 -108 73 -100 36 -100 482 0 339 -2 393 -16 421 -23 46 -42 65
-101 103 -28 18 -58 43 -65 56 -10 18 -14 152 -18 618 -6 686 0 644 -98 704
-49 30 -63 45 -81 85 -21 49 -21 57 -21 830 l0 780 31 36 c18 20 52 47 76 62
24 14 55 42 68 62 l25 36 0 778 0 778 -25 49 c-17 34 -38 57 -68 74 -61 36
-84 64 -96 116 -6 25 -11 158 -11 296 0 314 -3 328 -96 386 -56 35 -66 46 -84
94 -37 100 -20 224 37 275 l34 29 590 0 c559 0 592 1 627 19 22 11 46 35 60
59 22 40 22 40 22 535 l0 495 -28 29 c-16 15 -51 43 -79 62 -80 54 -93 81 -93
190 0 94 7 119 43 159 40 43 112 14 167 -69 20 -30 47 -60 62 -66 14 -7 71
-17 126 -21 122 -11 151 -26 207 -107 48 -70 75 -83 205 -94 106 -10 142 -28
184 -94 19 -29 40 -58 47 -63 27 -22 86 -37 169 -43 47 -4 98 -14 115 -22 16
-8 47 -40 67 -71 49 -73 88 -94 193 -101 122 -7 152 -21 200 -92 56 -82 93
-101 210 -108 52 -3 106 -11 121 -19 15 -7 46 -40 68 -73 67 -98 87 -105 302
-105 100 0 194 5 210 10 17 6 41 28 57 52 l27 42 0 590 c0 678 -9 619 102 692
99 66 92 33 98 490 l5 401 28 40 c15 22 38 45 50 51 12 6 68 11 123 11 88 1
105 -2 128 -20z"/>
<path d="M5035 10696 c-33 -9 -48 -23 -82 -76 -30 -45 -61 -76 -103 -105 -41
-28 -74 -60 -101 -101 -27 -42 -57 -71 -99 -98 -51 -33 -62 -45 -80 -92 -19
-51 -20 -77 -20 -393 0 -186 4 -363 10 -392 10 -57 18 -66 109 -132 25 -18 63
-59 86 -92 48 -70 75 -83 205 -94 107 -10 140 -27 188 -99 20 -31 51 -64 67
-72 25 -12 101 -16 415 -21 262 -4 397 -9 422 -18 29 -9 48 -26 78 -71 70
-103 74 -105 300 -108 231 -3 242 0 305 93 58 86 96 105 214 105 85 0 97 2
127 25 46 36 54 74 54 275 0 163 -2 178 -23 215 -12 22 -48 57 -79 80 -34 23
-75 65 -99 100 -27 40 -60 73 -96 95 -31 20 -69 55 -86 80 -44 65 -66 88 -124
126 -33 22 -65 57 -90 94 -27 43 -56 72 -100 100 -45 30 -71 56 -97 98 -25 41
-52 68 -96 97 -41 26 -75 60 -101 98 -55 79 -73 89 -182 96 -128 9 -166 29
-220 111 -57 88 -59 88 -392 88 -181 0 -283 -3 -310 -12z m262 -421 c6 -2 30
-30 52 -63 47 -70 90 -92 179 -92 63 0 154 -23 170 -43 5 -6 12 -34 13 -61 l4
-50 -68 -45 c-89 -61 -107 -104 -107 -261 0 -59 3 -115 6 -124 5 -13 25 -16
121 -16 127 0 197 13 230 43 25 22 43 94 43 170 0 28 7 71 16 94 15 39 22 45
67 58 59 18 57 18 116 -66 21 -30 64 -73 96 -96 35 -24 77 -66 101 -100 24
-34 64 -74 99 -98 39 -27 66 -55 82 -85 22 -40 23 -54 19 -133 -9 -141 -43
-182 -122 -152 -34 13 -52 29 -78 68 -63 98 -37 91 -380 97 -287 5 -303 6
-343 27 -44 24 -45 26 -63 116 l-11 57 -127 1 c-168 0 -200 12 -264 98 -28 37
-73 81 -108 105 -33 22 -62 48 -65 56 -8 25 13 94 33 110 11 8 40 29 65 47 53
37 64 64 76 193 13 135 31 163 95 154 23 -3 46 -7 53 -9z"/>
</g>
</svg>
