<?xml version="1.0" standalone="no"?>
<!DOCTYPE svg PUBLIC "-//W3C//DTD SVG 20010904//EN"
 "http://www.w3.org/TR/2001/REC-SVG-20010904/DTD/svg10.dtd">
<svg version="1.0" xmlns="http://www.w3.org/2000/svg"
 width="2607.000000pt" height="2607.000000pt" viewBox="0 0 2607.000000 2607.000000"
 preserveAspectRatio="xMidYMid meet">
<metadata>
Created by potrace 1.14, written by Peter Selinger 2001-2017
</metadata>
<g transform="translate(0.000000,2607.000000) scale(0.100000,-0.100000)"
fill="#000000" stroke="none">
<path d="M15817 21066 c-2 -6 -3 -50 -2 -98 1 -49 -1 -88 -4 -89 -3 0 -49 -1
-101 -2 l-95 -2 0 -97 c1 -81 -2 -98 -15 -99 -8 -1 -49 -2 -90 -3 -41 -2 -80
-4 -85 -4 -7 -1 -11 -37 -10 -96 1 -78 -1 -95 -14 -98 -9 -2 -147 -3 -308 -2
l-291 0 1 -307 2 -306 -80 -1 c-138 0 -125 6 -124 -59 1 -32 1 -77 0 -99 l-1
-41 -82 -1 c-46 0 -90 0 -100 -1 -14 -1 -16 -27 -16 -268 0 -148 -1 -282 -1
-300 l-1 -31 -162 0 c-90 0 -180 -1 -200 -1 l-37 -1 0 -282 c0 -156 0 -291 0
-301 -1 -16 -11 -17 -99 -16 l-99 2 -1 95 c0 52 -3 97 -6 99 -3 3 -47 6 -99 6
l-94 0 0 95 c0 56 -4 97 -11 101 -6 3 -54 5 -106 4 l-96 -2 0 100 c0 72 -3 99
-12 100 -7 1 -52 1 -100 1 l-88 -1 0 100 0 99 -32 1 c-18 0 -63 1 -100 1 l-68
0 0 99 c0 113 15 101 -122 101 l-78 0 0 99 c0 72 -3 99 -12 100 -7 0 -52 1
-100 1 l-88 1 0 98 c0 113 15 101 -122 100 l-78 0 0 98 c0 71 -4 100 -12 103
-11 3 -1735 2 -1788 -1 -13 -1 -16 -16 -15 -88 1 -49 0 -93 -2 -99 -3 -7 -35
-12 -86 -12 -45 0 -89 -1 -97 -1 -13 -1 -16 -16 -15 -88 1 -49 0 -93 -2 -99
-2 -7 -38 -11 -91 -12 -48 0 -92 -1 -97 -1 -7 -1 -11 -39 -11 -98 l0 -98 -85
-2 c-46 -1 -94 -2 -107 -2 -20 -1 -23 -6 -22 -33 1 -18 2 -63 1 -99 l-1 -65
-82 -1 c-46 -1 -91 -2 -101 -2 -16 -1 -18 -9 -17 -53 1 -29 1 -74 1 -100 l-1
-47 -77 1 c-43 0 -88 -1 -101 -1 l-23 -1 1 -457 c1 -252 1 -479 0 -505 l0 -48
-299 0 -300 0 1 201 c0 110 -2 203 -5 206 -3 3 -138 5 -300 5 l-295 0 -1 96
c-1 53 -3 98 -6 100 -2 3 -50 5 -105 5 l-100 0 -1 56 c0 31 -1 76 -2 100 l-2
43 -193 1 c-105 0 -195 -3 -199 -6 -3 -4 -6 -49 -5 -101 l2 -95 -95 1 c-52 1
-98 -1 -100 -4 -3 -3 -6 -48 -7 -101 l-1 -96 -298 2 -299 2 -1 -50 c0 -27 0
-166 0 -307 l0 -258 -100 0 -99 0 -1 -32 c0 -18 0 -63 0 -100 l-1 -68 -99 0
c-72 0 -99 -3 -100 -12 -1 -7 0 -52 1 -100 l1 -88 -108 0 -109 0 1 -100 0
-100 -100 0 -101 0 1 -404 c0 -397 0 -405 -20 -408 -11 -2 -962 -3 -2112 -3
-1441 1 -2093 -2 -2094 -10 0 -5 -1 -48 -1 -95 0 -47 -4 -87 -8 -90 -5 -3 -49
-5 -99 -4 -59 0 -91 -3 -92 -10 -1 -14 -1 -1144 0 -1171 1 -19 8 -20 188 -19
104 0 193 -1 199 -3 8 -3 11 -64 12 -191 0 -103 1 -195 1 -204 1 -17 17 -18
200 -18 l200 0 -1 -182 c0 -101 1 -191 1 -200 1 -16 13 -18 100 -18 l99 0 0
-177 c0 -98 1 -188 1 -200 1 -22 4 -23 106 -23 l105 0 0 -100 0 -100 100 0
100 0 0 -100 0 -100 100 0 100 0 0 -100 0 -100 100 0 100 0 0 -100 0 -100
-300 0 -300 0 0 -105 0 -105 -105 0 c-77 0 -105 -3 -106 -12 0 -7 -1 -52 0
-100 0 -62 -3 -88 -12 -88 -7 -1 -231 -1 -500 0 l-487 0 -1 -23 c-1 -12 -1
-102 -1 -199 l0 -178 -97 0 c-53 -1 -281 -1 -508 -1 l-411 0 2 -99 1 -99 -100
-3 -100 -3 -1 -93 c-1 -51 -4 -95 -7 -98 -3 -3 -47 -5 -99 -5 l-94 0 0 -199
c0 -175 2 -200 15 -201 9 0 53 -1 98 -1 54 1 83 -3 85 -11 2 -7 3 -51 3 -99
-2 -101 -15 -91 123 -89 83 2 74 16 75 -129 l1 -85 1310 0 1311 0 5 -100 5
-100 95 0 95 0 5 -100 5 -100 95 0 95 0 3 -1815 2 -1815 100 1 99 2 3 -101 3
-101 98 1 97 1 0 -101 0 -102 100 1 100 1 0 -98 c0 -72 3 -99 13 -100 73 -5
989 0 994 5 4 4 8 42 9 84 1 42 2 85 3 94 1 14 13 17 84 16 45 0 89 0 97 1 12
1 15 19 15 98 l0 98 85 1 c47 1 92 2 100 3 12 1 15 19 15 98 l0 98 75 1 c142
3 126 -9 124 91 0 49 1 93 3 99 3 8 91 11 286 12 155 0 292 1 304 1 22 1 23 5
22 69 0 37 0 81 0 99 l1 31 98 -1 97 -1 2 65 c0 35 1 83 2 107 l1 42 99 0 99
0 0 58 c0 31 1 76 1 100 l1 42 300 0 299 0 0 178 c0 97 0 187 0 200 l1 22 299
0 300 0 -1 48 c0 26 1 71 1 100 l1 52 105 0 105 0 0 100 0 100 100 0 100 0 1
48 c0 26 0 71 -1 100 l-1 52 400 0 401 0 0 -32 c1 -18 1 -467 1 -998 0 -531 4
-969 9 -975 5 -6 46 -10 99 -8 64 1 91 -2 91 -10 1 -7 1 -187 1 -402 l0 -390
99 1 100 1 1 -94 c1 -51 2 -99 3 -105 1 -9 27 -13 93 -14 51 0 95 -3 98 -6 3
-3 7 -48 8 -99 l2 -94 105 0 105 -1 0 -99 0 -100 95 0 c52 0 97 -3 100 -7 3
-3 5 -47 4 -97 0 -58 3 -92 10 -93 6 -1 96 -2 201 -2 l190 -1 0 -100 0 -100
92 0 c51 -1 96 -5 100 -9 4 -4 8 -49 8 -99 l0 -92 505 0 505 0 5 100 5 100 95
0 95 0 5 100 5 99 290 2 c160 0 293 2 298 3 4 0 7 44 7 96 0 83 2 95 18 96 9
1 49 2 87 4 39 1 76 3 83 3 9 2 12 29 12 97 0 77 3 95 15 96 8 1 52 2 98 3
l82 1 3 98 c2 83 5 97 20 98 9 1 53 2 97 3 l80 1 5 306 5 306 98 -1 c55 -1
101 3 104 7 3 5 5 50 5 101 l0 93 99 -1 99 -1 1 50 c0 28 0 163 1 301 l0 251
90 -1 c49 -1 95 2 100 6 7 3 11 46 12 100 l1 93 92 1 c51 0 96 3 100 7 3 4 6
52 5 107 l-1 100 202 0 202 0 -2 -105 c-1 -92 0 -105 15 -106 9 -1 54 -1 100
-2 81 0 82 0 83 -26 0 -14 0 -149 0 -298 1 -201 4 -273 12 -274 7 -1 51 -1
100 -1 99 -1 89 13 89 -120 0 -53 3 -78 11 -79 7 -1 51 -1 100 -1 l87 -1 1
-36 c0 -20 1 -64 1 -98 0 -40 4 -63 12 -64 6 0 54 -1 106 -2 l95 -2 0 -99 0
-100 100 0 100 -1 1 -90 c1 -49 2 -94 3 -100 0 -6 41 -10 98 -10 l98 0 0 -102
c-1 -57 2 -104 5 -104 3 -1 43 -3 90 -3 47 -1 90 -5 96 -8 6 -4 10 -43 9 -97
-1 -56 3 -92 9 -94 6 -2 49 -4 94 -3 47 1 87 -3 90 -9 4 -5 7 -48 8 -95 1 -47
2 -87 3 -91 0 -3 588 -5 1306 -5 l1305 0 2 200 3 200 203 0 c197 0 202 0 203
20 0 12 1 150 1 307 l1 286 291 1 c160 0 296 1 301 1 6 1 10 107 9 300 l-1
299 99 -2 c82 -1 98 1 99 14 1 8 1 54 1 101 l0 85 94 1 c52 0 97 3 101 7 3 3
6 276 6 606 l0 600 99 0 c71 0 98 3 99 13 1 6 1 51 1 100 l-1 87 99 0 c69 0
99 4 102 12 2 7 3 142 3 301 l-1 287 306 0 306 0 -1 -88 c-1 -48 1 -93 3 -100
3 -8 32 -12 101 -12 l97 0 0 -97 0 -98 399 -5 400 -5 0 -85 c-1 -47 1 -91 3
-98 3 -9 114 -12 508 -12 l504 0 0 -200 0 -200 1204 0 c954 0 1205 3 1208 13
3 10 2 935 -1 975 -1 9 -28 12 -100 12 l-99 0 2 101 c0 58 -3 104 -9 107 -5 4
-48 7 -95 8 -47 1 -88 2 -92 3 -4 0 -6 42 -5 91 2 50 0 94 -3 98 -3 4 -47 7
-98 7 -107 -1 -101 -7 -100 110 0 39 -1 75 -1 80 -1 6 -37 10 -89 10 -48 -1
-92 1 -99 3 -8 3 -11 32 -10 98 2 57 -1 95 -8 97 -5 2 -50 3 -98 2 -101 -1
-97 -5 -93 105 3 96 3 96 -103 95 -56 -1 -92 3 -93 10 -1 5 -2 44 -4 85 -1 41
-2 82 -3 90 -1 13 -18 15 -103 15 l-103 -1 -5 301 -5 300 -97 0 -98 -1 0 107
0 108 -197 -1 -198 -1 -3 202 -2 202 -103 -1 c-56 -1 -146 -1 -199 -1 l-98 1
0 200 0 199 -97 -1 -98 -2 -3 102 -3 103 -137 -1 c-75 -1 -165 -1 -199 -1
l-63 1 0 200 0 200 273 -1 c149 0 284 0 300 0 l27 1 0 99 0 100 83 -1 c45 0
90 1 100 1 15 1 17 13 17 106 l0 105 100 0 100 0 0 100 0 100 300 0 300 0 0
100 0 100 105 0 c93 0 105 2 106 18 1 9 1 54 1 100 l0 82 99 0 c72 0 99 3 100
13 0 6 1 95 2 197 l2 185 300 5 300 5 -1 198 -1 197 99 0 c71 0 98 3 99 13 1
6 1 51 1 100 l1 87 97 0 c70 0 99 4 102 13 2 6 3 235 3 507 l-1 495 -1612 0
c-887 0 -1613 2 -1613 5 -1 3 -2 48 -3 100 l-1 95 -95 0 c-75 0 -96 3 -101 15
-4 12 -4 1161 0 1193 1 4 93 7 206 7 l205 0 0 1005 0 1005 -22 1 c-13 0 -61 1
-108 1 l-85 0 1 92 c0 50 -3 96 -7 101 -4 6 -46 9 -96 8 -48 -1 -90 2 -93 7
-3 4 -5 49 -4 99 1 60 -3 91 -10 92 -6 0 -230 1 -498 1 -269 0 -488 3 -489 7
-1 3 -2 93 -3 200 l-1 194 -390 -1 c-214 0 -398 -1 -407 -1 -15 -1 -17 -13
-15 -98 l1 -98 -97 0 c-112 0 -106 6 -105 -105 0 -41 0 -80 -1 -87 -1 -8 -72
-11 -268 -11 -148 0 -282 0 -299 -1 l-32 -1 1 -297 1 -298 -90 -2 c-49 -1 -94
-2 -101 -2 -8 -1 -12 -24 -11 -73 0 -40 0 -85 -1 -100 l-1 -27 -82 0 c-46 1
-91 0 -100 0 -15 -1 -17 -12 -16 -78 0 -43 0 -88 -1 -100 l-1 -23 -205 1 -205
1 0 299 0 299 -22 1 c-13 1 -58 1 -100 0 l-78 -1 0 100 c0 88 -2 100 -17 101
-10 1 -55 1 -100 1 l-83 0 0 301 0 302 -100 -2 -100 -1 0 307 0 308 -200 -1
-200 -1 0 201 0 201 -287 -2 c-159 0 -294 1 -300 3 -9 3 -13 32 -13 101 l0 97
-705 0 c-488 0 -705 -3 -708 -10z m996 -600 c2 -6 3 -50 2 -98 -1 -101 -15
-91 123 -90 46 0 72 -4 73 -12 1 -6 3 -49 4 -96 1 -47 3 -90 4 -97 1 -8 27
-11 84 -11 142 1 127 13 127 -101 l0 -99 88 0 c48 0 93 -1 100 -1 9 -1 12 -28
12 -100 l0 -99 73 0 c39 0 84 0 100 -1 l27 -1 0 -100 0 -99 68 1 c37 0 82 0
100 -1 l32 -1 0 -301 0 -300 68 1 c37 1 82 1 100 1 l32 -1 0 -99 0 -99 83 0
c45 0 90 0 100 -1 16 -1 17 -27 17 -406 l0 -405 100 0 100 0 0 -100 0 -100
100 0 100 0 0 -300 0 -300 405 0 c379 0 405 1 406 18 0 9 1 54 1 99 l0 82 101
3 101 3 -1 297 0 297 100 3 101 3 0 198 -1 197 99 0 c86 0 98 2 99 18 1 9 1
56 1 105 l-1 87 82 1 c45 1 90 1 100 0 19 -2 20 0 19 111 0 46 4 80 10 84 6 4
52 6 102 6 l91 -2 -1 100 c-1 86 1 100 15 101 9 0 54 1 101 2 l85 2 -2 98 -2
97 37 1 c37 1 162 1 173 0 3 -1 5 -40 4 -88 0 -49 1 -93 3 -99 2 -9 83 -12
285 -12 155 0 289 -1 297 -1 12 -1 15 -17 15 -83 0 -121 -1 -120 59 -118 28 1
72 1 97 1 l46 -1 -2 -82 c-1 -105 2 -120 29 -117 11 0 55 1 96 0 l76 -1 -1
-102 0 -103 100 -5 100 -5 0 -297 1 -298 -97 0 c-69 0 -98 -4 -101 -12 -2 -7
-3 -51 -3 -98 l1 -85 -100 -5 -100 -5 -1 -1195 c0 -657 1 -1199 2 -1205 2 -7
515 -10 1513 -10 1349 1 1510 -1 1511 -15 1 -19 1 -382 0 -392 -1 -5 -93 -8
-206 -8 l-205 0 0 -200 0 -200 -300 0 -300 0 0 -100 0 -100 -100 0 -100 0 0
-100 0 -100 -100 0 -100 0 0 -100 0 -100 -300 0 -300 0 0 -100 0 -100 -108 0
-108 0 1 -100 1 -100 -198 0 c-151 0 -198 -3 -199 -12 -1 -7 -2 -278 -3 -603
l-1 -590 100 -5 100 -5 1 -195 c1 -107 2 -197 3 -200 1 -3 93 -4 206 -3 l205
2 0 -307 0 -307 198 0 197 0 5 -100 5 -100 95 0 95 0 5 -200 5 -200 95 0 95 0
3 -100 3 -101 97 1 97 0 3 -100 3 -101 97 1 97 0 5 -100 5 -100 95 0 95 0 3
-101 3 -100 97 1 97 0 3 -408 2 -407 -200 0 -200 0 0 100 0 100 -100 0 -100 0
0 100 0 100 -500 0 -499 0 -3 107 -3 108 -97 0 c-53 0 -100 4 -104 8 -5 4 -9
47 -10 95 0 48 -2 89 -3 92 0 3 -87 5 -192 5 -104 0 -193 2 -197 5 -4 3 -7 48
-7 100 l0 95 -498 0 c-437 0 -497 2 -498 15 -1 8 -2 50 -2 93 -1 49 -7 81 -14
85 -7 4 -51 7 -98 7 -47 0 -85 2 -86 5 0 3 -2 48 -2 100 l-2 95 -306 0 -306 0
-1 -85 c0 -47 0 -92 -1 -100 -1 -13 -18 -15 -100 -15 l-99 0 0 -85 c0 -47 0
-92 -1 -100 -1 -12 -18 -15 -88 -15 -49 0 -93 -1 -99 -3 -8 -2 -12 -88 -12
-295 0 -161 -1 -298 -1 -304 -1 -10 -28 -13 -100 -13 l-98 0 -1 -787 c0 -434
-1 -794 -1 -800 -1 -10 -28 -13 -100 -13 l-99 0 1 -100 c0 -55 -2 -103 -6
-106 -3 -4 -49 -7 -100 -7 l-94 0 0 -92 c0 -51 -3 -96 -6 -101 -3 -5 -47 -8
-99 -7 l-94 2 -1 -95 c0 -52 -3 -98 -6 -101 -3 -3 -50 -6 -104 -7 l-98 -1 -5
-100 -5 -99 -97 1 -98 0 0 -198 0 -199 -22 -1 c-13 0 -58 -1 -100 -1 l-78 0 0
-99 0 -99 -37 -1 c-208 -5 -1565 0 -1571 5 -4 4 -7 49 -7 99 l0 92 -290 2
c-159 1 -295 2 -300 2 -6 1 -10 40 -10 100 l0 99 -75 0 c-141 0 -125 -12 -125
99 l0 98 -91 1 c-50 0 -95 3 -100 7 -5 3 -9 127 -9 300 l0 294 -91 0 c-50 0
-95 3 -101 6 -5 3 -9 50 -8 106 l1 101 -97 0 c-68 0 -98 4 -101 13 -2 6 -4 51
-3 100 l1 87 -107 0 -106 0 -1 83 c0 45 -1 90 -1 100 -1 15 -13 17 -100 17
l-99 0 -1 282 c0 156 0 291 0 301 -1 15 -13 17 -101 17 l-100 0 1 83 c1 45 1
90 0 100 -1 16 -27 17 -401 17 l-400 0 1 -67 c0 -38 1 -83 0 -100 l-1 -33 -99
0 -100 0 0 -242 c0 -134 0 -269 0 -300 l-1 -58 -100 0 -100 0 1 -58 c1 -31 1
-76 0 -99 l-1 -43 -105 0 -105 0 0 -100 0 -100 -100 0 -99 0 -3 -107 -3 -107
-97 1 -98 1 0 -299 0 -299 -42 -1 c-24 -1 -69 -1 -100 -1 l-58 0 0 -299 0
-299 -22 -1 c-13 0 -148 -1 -300 -1 l-278 -1 0 -99 0 -98 -42 -1 c-24 -1 -69
-1 -100 -1 l-57 1 -3 -107 -3 -107 -95 0 -95 0 -5 -100 -5 -100 -105 0 -105
-1 0 -99 0 -100 -90 -1 c-50 -1 -95 1 -100 3 -7 2 -10 71 -10 188 0 102 -2
190 -5 197 -4 10 -72 13 -300 13 l-295 0 -1 105 0 105 -92 0 c-50 1 -95 4 -99
9 -4 4 -8 94 -8 199 l0 192 -80 2 c-44 0 -89 2 -100 2 -20 1 -20 7 -20 299 l0
297 -93 1 c-50 0 -95 4 -99 8 -5 4 -8 49 -8 99 l0 92 -95 2 c-52 1 -100 2
-107 2 -8 1 -11 310 -12 1258 0 692 0 1283 -1 1313 l0 55 -701 0 -700 0 1 -40
c1 -22 1 -67 1 -100 l-1 -60 -301 0 c-165 0 -303 -3 -305 -7 -3 -4 -5 -143 -6
-308 l0 -300 -99 0 c-113 0 -101 15 -101 -123 l0 -77 -299 0 -299 0 -1 -32
c-1 -18 0 -63 0 -100 l2 -68 -201 0 -200 0 -1 -32 c0 -18 0 -63 0 -100 l1 -67
-101 -3 -102 -3 2 -97 2 -97 -108 -3 -108 -3 -1 -80 c-1 -44 -2 -88 -3 -97 -1
-16 -13 -18 -99 -18 l-98 0 1 -83 c0 -45 -1 -90 -3 -99 -4 -17 -27 -18 -302
-18 l-297 0 1 -97 1 -98 -100 -5 -101 -5 1 -102 c0 -57 -2 -103 -5 -104 -3 0
-48 -1 -100 -2 l-95 -2 0 -98 c0 -79 -3 -97 -15 -98 -95 -5 -173 -2 -178 6 -4
6 -8 46 -8 90 -1 44 -2 85 -3 91 -1 7 -33 11 -89 12 -48 0 -92 1 -98 1 -8 1
-11 31 -9 94 1 50 0 98 -3 105 -3 8 -34 12 -108 12 l-104 0 0 1105 c0 877 3
1105 13 1106 6 1 55 2 107 3 l94 1 1 690 c0 380 -1 697 -3 707 -4 15 -36 16
-355 16 -194 1 -376 1 -404 1 l-53 1 0 101 0 101 -43 -2 c-23 -1 -68 -1 -99
-1 l-58 1 0 100 0 99 -605 -2 -605 -2 -1 60 c0 70 0 206 0 286 l1 57 478 0
c262 0 489 1 505 1 l27 1 0 99 0 99 243 1 c133 0 268 0 300 0 l57 1 0 705 0
705 -100 0 -100 0 0 100 0 100 -100 0 -100 0 0 300 0 300 -32 1 c-18 0 -62 1
-98 2 l-65 2 -3 98 -3 97 -199 0 -200 0 0 208 0 208 -205 -1 -205 0 -1 25 c0
32 0 505 0 545 l1 31 1710 0 c1530 0 1710 -2 1711 -16 1 -8 2 -53 3 -100 l1
-85 505 1 505 0 2 296 c1 217 -2 298 -10 301 -7 2 -51 3 -99 3 l-88 -1 0 35
c-1 67 -1 905 -1 943 l1 37 100 0 101 0 -2 63 c0 34 -1 79 0 100 l1 37 100 0
100 0 0 100 0 100 99 0 100 0 -1 63 c0 34 0 79 1 100 l1 37 100 0 99 0 0 83
c0 45 0 90 0 100 1 16 17 17 200 17 l200 0 0 -72 c0 -40 0 -85 0 -100 l1 -28
105 0 105 0 0 -100 0 -100 100 0 100 0 1 -47 c0 -27 0 -162 -1 -300 l0 -253
100 0 100 0 1 -37 c0 -21 0 -66 -1 -100 l-1 -63 100 0 101 0 1 -37 c0 -21 1
-69 2 -108 l2 -69 488 -1 c269 0 493 3 499 6 6 4 10 220 10 608 l0 601 107 0
106 0 0 98 0 97 100 5 100 5 0 303 0 302 75 1 c41 1 85 0 96 0 12 -1 23 4 26
11 2 7 4 142 3 301 0 249 2 287 15 288 8 0 97 1 198 1 100 0 183 3 183 7 1 3
3 92 4 196 1 105 3 192 4 195 0 3 133 5 293 5 242 0 294 -2 299 -14 3 -8 5
-54 4 -102 l-2 -88 86 0 c147 1 131 14 131 -100 l0 -99 288 0 c158 0 293 -1
300 -1 9 -1 12 -28 12 -100 l0 -99 78 0 c136 1 122 13 122 -103 l0 -100 78 1
c42 1 87 2 100 1 l22 -1 0 -305 0 -305 100 0 100 0 0 -100 0 -100 100 0 100 0
0 -100 0 -100 100 0 100 0 0 -100 0 -100 105 0 105 0 1 -42 c1 -24 1 -69 0
-100 l-1 -58 100 0 c88 0 100 -2 101 -17 0 -10 0 -55 -1 -100 l-1 -83 400 0
c375 0 401 1 402 18 0 9 1 54 1 100 l0 82 99 0 c72 0 99 3 100 13 0 6 1 369 1
805 l0 792 37 1 c20 1 65 2 100 2 l64 2 -1 198 c0 195 0 197 21 198 12 0 55 0
95 0 88 1 89 2 85 119 -2 69 0 80 15 81 9 1 57 2 107 3 l90 1 1 95 c1 52 2 97
3 100 0 3 43 4 95 4 62 -1 96 3 99 10 2 6 3 50 2 99 l-1 87 30 1 c17 0 61 1
99 1 42 0 67 4 68 12 1 6 3 47 4 91 1 44 3 85 4 90 0 6 38 9 93 8 51 -1 95 2
98 8 4 5 6 52 5 104 -1 59 3 96 10 97 5 1 42 2 80 4 39 1 79 3 91 3 19 1 20 7
19 89 -1 48 2 92 6 98 12 14 587 15 592 0z"/>
<path d="M9360 14533 c1 -49 1 -94 1 -101 -1 -10 -16 -13 -53 -12 -29 1 -74 1
-100 1 l-48 -1 0 -100 0 -100 -99 0 -100 0 2 -597 2 -598 98 -3 97 -3 0 -104
c0 -120 -15 -107 123 -105 l77 1 1 -48 c1 -26 1 -72 -1 -100 l-2 -53 34 0 c18
-1 153 -1 301 -1 l267 0 1 -27 c0 -15 0 -60 -1 -99 -1 -54 2 -73 12 -74 7 0
56 0 108 0 l95 0 0 -99 -1 -100 66 0 c87 -1 2710 -1 2733 0 16 0 17 55 17
1005 l0 1005 -200 0 -200 0 0 100 0 100 -27 1 c-16 0 -61 0 -100 -1 l-73 -1 0
100 0 101 -1516 0 -1515 0 1 -87z m1615 -811 l0 -297 100 -5 100 -5 0 -97 -1
-98 201 0 200 0 0 298 -1 297 106 5 105 5 3 98 3 97 299 0 300 0 0 -500 0
-500 -904 0 c-714 0 -905 3 -908 13 -2 6 -4 50 -4 97 l1 85 -200 5 -200 5 0
98 1 97 -108 0 -107 0 1 300 0 300 507 0 506 0 0 -298z"/>
</g>
</svg>
